<svg width="128" height="128" viewBox="0 0 128 128" fill="none" xmlns="http://www.w3.org/2000/svg">
<rect width="128" height="128" rx="10" fill="#FCFCFC"/>
<g clip-path="url(#clip0_3827_413049)">
<path d="M27.3554 58.9226H32.9165L32.0569 62.2744C31.9356 62.7136 31.6763 63.1004 31.3185 63.3761C30.9604 63.6567 30.519 63.8055 30.0667 63.798H27.4996C26.9347 63.7882 26.3833 63.9742 25.9363 64.3254C25.4795 64.6854 25.1481 65.1843 24.9902 65.7493C24.8768 66.1657 24.863 66.6037 24.9498 67.0267C25.0366 67.4097 25.1995 67.7706 25.4286 68.0873C25.6629 68.4015 25.9674 68.6546 26.317 68.8257C26.6846 69.0102 27.0896 69.1046 27.4996 69.1011H29.0572C29.3431 69.0954 29.614 69.2308 29.784 69.4644C29.9658 69.6905 30.0242 69.994 29.9398 70.273L28.9591 73.9764H27.2285C26.0946 73.9878 24.9754 73.7162 23.9692 73.1853C23.0069 72.6905 22.1639 71.9862 21.5001 71.1227C20.8448 70.2595 20.3875 69.2585 20.1618 68.1928C19.9199 67.0636 19.9496 65.8917 20.2483 64.7766L20.3464 64.3722C20.554 63.585 20.8894 62.8384 21.3386 62.1631C21.7804 61.5083 22.3217 60.9287 22.9423 60.4462C23.5627 59.9626 24.2563 59.5846 24.996 59.327C25.7541 59.0568 26.552 58.9201 27.3554 58.9226ZM30.1648 73.9998L34.999 55.5474C35.1203 55.1004 35.384 54.7068 35.7489 54.4282C36.1067 54.142 36.5512 53.9909 37.0065 54.0004H42.1464C43.2717 53.9934 44.382 54.2627 45.3827 54.7856C47.353 55.8025 48.7682 57.6662 49.2362 59.8602C49.4796 60.9879 49.446 62.1592 49.1381 63.2706L49.0401 63.6456C48.8331 64.4339 48.4998 65.1822 48.0536 65.8606C47.6227 66.5305 47.0868 67.1243 46.4672 67.6185C45.2007 68.6096 43.6471 69.1473 42.0484 69.1479H37.5949L38.4602 65.72C38.58 65.2816 38.8372 64.8949 39.1928 64.6183C39.5529 64.3364 39.9959 64.1857 40.4504 64.1906H41.9215C43.1025 64.1879 44.1302 63.3688 44.4135 62.2041C44.5255 61.8052 44.5374 61.3842 44.4482 60.9794C44.364 60.5955 44.2008 60.2341 43.9694 59.9188C43.7274 59.6114 43.4222 59.3614 43.0752 59.1863C42.7182 58.9999 42.3229 58.9015 41.9215 58.8992H39.1467L35.5758 72.4704C35.4519 72.9083 35.1931 73.2944 34.8374 73.5721C34.488 73.8531 34.0544 74.0041 33.6087 73.9998H30.1648ZM60.8487 64.1496L60.9237 63.8742C60.9604 63.7572 60.9365 63.6294 60.8602 63.5343C60.7888 63.4352 60.6753 63.3765 60.5545 63.3761H52.559C51.6008 63.3802 50.7717 62.6996 50.5746 61.7471C50.5026 61.4269 50.5026 61.0944 50.5746 60.7743L51.0707 58.8758H61.9101C62.5511 58.8664 63.1841 59.0216 63.7503 59.327C64.2922 59.6102 64.7666 60.0102 65.1406 60.4989C65.5144 60.9891 65.7765 61.5575 65.9078 62.1631C66.0463 62.8018 66.0325 63.4647 65.8675 64.0968L63.9234 71.4508C63.5356 72.9464 62.1981 73.984 60.6756 73.9705L52.6801 73.9237C51.3496 73.9338 50.0915 73.309 49.2824 72.2361C48.8995 71.7141 48.6319 71.1145 48.4978 70.4781C48.3478 69.8127 48.3637 69.1199 48.544 68.4624L48.642 68.0873C48.7598 67.6234 48.9549 67.1835 49.2189 66.7865C49.4825 66.3971 49.8036 66.0512 50.1707 65.761C50.5372 65.4882 50.9442 65.2765 51.3764 65.134C51.8272 64.9757 52.3013 64.8964 52.7782 64.8996H59.493L59.0027 66.7747C58.8794 67.213 58.6205 67.5993 58.2643 67.8764C57.9134 68.1541 57.4803 68.3028 57.0355 68.2983H54.0358C53.7761 68.2822 53.5456 68.466 53.4993 68.726C53.4457 68.8944 53.4829 69.079 53.5974 69.2124C53.7027 69.3489 53.8651 69.4271 54.0358 69.4234H58.8815C59.0495 69.4259 59.2137 69.3724 59.3488 69.271C59.4789 69.1756 59.5678 69.0329 59.5968 68.8725L59.643 68.6733L60.8487 64.1496ZM75.1724 58.9226C76.3138 58.9095 77.4409 59.1812 78.4548 59.7137C79.4214 60.2146 80.2667 60.9271 80.9296 61.7998C81.5912 62.6767 82.0488 63.6944 82.268 64.7766C82.5079 65.9091 82.4703 67.0843 82.1584 68.1987L80.9296 72.8865C80.8548 73.2092 80.6659 73.4927 80.3989 73.6834C80.142 73.8823 79.8277 73.9894 79.5047 73.9881H76.8454C76.2368 74 75.7901 73.4108 75.957 72.8162L77.4338 67.1439C77.5477 66.7455 77.5616 66.3245 77.4741 65.9192C77.389 65.5346 77.2238 65.1729 76.9896 64.8586C76.4976 64.2045 75.7348 63.8191 74.9244 63.8156H72.1669L69.7844 72.8982C69.7071 73.2198 69.5188 73.5026 69.2537 73.6951C68.9878 73.8978 68.6631 74.005 68.3307 73.9998H65.6944C65.4184 73.9971 65.1598 73.8625 64.9964 73.6365C64.8097 73.4106 64.7488 73.1038 64.8349 72.822L68.4576 58.9226H75.1724ZM89.6635 63.6866C89.472 63.8369 89.3276 64.0405 89.2481 64.2726L88.1405 68.521C88.0727 68.7448 88.118 68.9882 88.2617 69.1714C88.3954 69.3595 88.6101 69.4708 88.8386 69.4702H99.0319L98.2416 72.4411C98.1199 72.8801 97.8607 73.2668 97.5032 73.5428C97.1542 73.8247 96.7203 73.9757 96.2745 73.9705H87.0099C86.3685 73.9789 85.7348 73.828 85.1639 73.5311C84.6206 73.2501 84.1456 72.8497 83.7736 72.3591C83.404 71.8619 83.1424 71.2907 83.0064 70.6832C82.8691 70.0492 82.8909 69.3903 83.0698 68.7671L84.5697 63.0948C84.7312 62.4892 84.9905 61.9149 85.3369 61.3955C86.0069 60.376 86.9878 59.6081 88.129 59.2098C88.7084 58.9992 89.3193 58.8922 89.9346 58.8933H96.5052C97.1478 58.8867 97.7819 59.0417 98.3512 59.3445C98.8929 59.628 99.3674 60.0279 99.7415 60.5165C100.117 61.006 100.373 61.5779 100.491 62.1865C100.623 62.8241 100.607 63.4841 100.445 64.1144L100.001 65.8137C99.8212 66.5394 99.3992 67.1794 98.8069 67.6244C98.2258 68.0802 97.5105 68.3238 96.7763 68.3159H89.3462L89.8365 66.4642C89.9444 66.0249 90.1968 65.6362 90.5519 65.3625C90.91 65.0819 91.3514 64.9331 91.8037 64.9406H94.8092C95.0694 64.9545 95.3003 64.7724 95.3515 64.5129L95.4495 64.1378C95.5379 63.7755 95.2746 63.4227 94.9073 63.4112H90.3327C90.0847 63.4203 89.8477 63.5178 89.6635 63.6866ZM99.0319 73.9998L103.981 55.1255C104.059 54.8008 104.244 54.5131 104.506 54.311C104.772 54.1074 105.097 53.9983 105.429 54.0004H108.066C108.358 53.993 108.637 54.128 108.816 54.3637C108.995 54.5911 109.05 54.8954 108.96 55.1724L105.268 69.1011C105.093 69.8141 104.796 70.4904 104.391 71.0993C104.002 71.687 103.521 72.2058 102.966 72.6345C102.411 73.066 101.792 73.4043 101.132 73.6365C100.457 73.877 99.747 73.9998 99.0319 73.9998Z" fill="#F26C32"/>
</g>
<defs>
<clipPath id="clip0_3827_413049">
<rect width="89" height="20" fill="white" transform="translate(20 54)"/>
</clipPath>
</defs>
</svg>
