<svg width="128" height="128" viewBox="0 0 128 128" fill="none" xmlns="http://www.w3.org/2000/svg">
<rect width="128" height="128" rx="10" fill="#FCFCFC"/>
<path d="M29.1569 51.1855C21.9085 51.1855 16 57.0779 16 64.3425C16 71.607 21.8924 77.4994 29.1569 77.4994C36.4215 77.4994 42.3138 71.607 42.3138 64.3425C42.3138 57.0779 36.4215 51.1855 29.1569 51.1855ZM28.4789 66.5218H21.9246L28.4789 53.7685V66.5218ZM29.8188 74.8841V62.1308H36.3569L29.8188 74.8841Z" fill="#00BE28"/>
<path d="M50.033 72.8547C49.6851 72.2797 49.3523 71.7047 49.0195 71.1616C50.759 70.0436 51.3489 69.1491 51.3489 67.456V57.6969H49.3069V55.8281H53.6631V66.9609C53.6631 69.804 52.8766 71.3853 50.033 72.8547Z" fill="black"/>
<path d="M69.4661 66.2803C69.4661 67.2518 70.1129 67.3506 70.5442 67.3506C70.9754 67.3506 71.5915 67.2024 72.0843 67.0378V68.8326C71.4067 69.0632 70.7136 69.2443 69.7587 69.2443C68.6036 69.2443 67.2636 68.7832 67.2636 66.6261V61.3567H66.0469V59.5454H67.2636V56.8613H69.4661V59.5454H72.2384V61.3567H69.4661V66.2803Z" fill="black"/>
<path d="M74.3047 73.8863V59.681H76.4544V60.5346C77.3017 59.8582 78.2588 59.4395 79.4356 59.4395C81.4598 59.4395 83.076 60.889 83.076 64.0296C83.076 67.138 81.3186 69.1834 78.4157 69.1834C77.7096 69.1834 77.1448 69.0868 76.5642 68.9579V73.8702H74.3204V73.8863H74.3047ZM78.8394 61.3399C78.1804 61.3399 77.3487 61.662 76.5642 62.3707V67.2024C77.0506 67.299 77.5684 67.3796 78.2431 67.3796C79.8279 67.3796 80.738 66.3488 80.738 64.2067C80.738 62.2257 80.079 61.3399 78.8394 61.3399Z" fill="black"/>
<path d="M92.3007 69.0638H90.1668V68.0233H90.119C89.3705 68.6086 88.4628 69.2426 87.0933 69.2426C85.899 69.2426 84.625 68.3647 84.625 66.5602C84.625 64.1541 86.6315 63.6989 88.0488 63.5038L90.0553 63.2274V62.951C90.0553 61.683 89.5616 61.2765 88.3991 61.2765C87.8258 61.2765 86.4882 61.4554 85.4053 61.9106L85.2142 60.041C86.2015 59.6833 87.5711 59.4395 88.7017 59.4395C90.9311 59.4395 92.3644 60.3499 92.3644 63.0486V69.0638H92.3007ZM90.0234 64.6906L88.1443 64.9995C87.5711 65.0808 86.9818 65.4222 86.9818 66.2838C86.9818 67.0479 87.3959 67.4706 88.0169 67.4706C88.6858 67.4706 89.4024 67.0642 90.0234 66.609V64.6906Z" fill="black"/>
<path d="M101.65 68.7097C100.696 69.0327 99.8399 69.2426 98.7574 69.2426C95.2835 69.2426 93.9102 67.2562 93.9102 64.3653C93.9102 61.329 95.8167 59.4395 98.9028 59.4395C100.066 59.4395 100.761 59.6333 101.536 59.8917V61.8458C100.858 61.5874 99.8722 61.3129 98.9189 61.3129C97.5132 61.3129 96.3014 62.0719 96.3014 64.2199C96.3014 66.6102 97.5132 67.3369 99.032 67.3369C99.7591 67.3369 100.567 67.1916 101.65 66.7555V68.6935V68.7097Z" fill="black"/>
<path d="M106.087 63.8179C106.289 63.5877 106.457 63.3576 109.486 59.7572H112.632L108.712 64.2453L113.002 69.2266H109.856L106.121 64.7385V69.243H103.715V55.8281H106.121V63.8343H106.087V63.8179Z" fill="black"/>
<path d="M64.2027 68.7088C62.9568 69.0809 61.9102 69.2426 60.6643 69.2426C57.6243 69.2426 55.7305 67.7544 55.7305 64.2925C55.7305 61.7527 57.3252 59.4395 60.3985 59.4395C63.4386 59.4395 64.5017 61.4939 64.5017 63.4675C64.5017 64.1146 64.4519 64.4705 64.4187 64.8587H58.2721C58.322 66.897 59.5181 67.3661 61.2956 67.3661C62.2757 67.3661 63.1562 67.1396 64.1695 66.7838V68.725H64.2027V68.7088ZM62.0265 63.3057C62.0265 62.1733 61.6444 61.1866 60.3653 61.1866C59.1692 61.1866 58.4549 62.0116 58.3054 63.3057H62.0265Z" fill="black"/>
</svg>
