<svg width="128" height="128" viewBox="0 0 128 128" fill="none" xmlns="http://www.w3.org/2000/svg">
<rect width="128" height="128" rx="10" fill="#FCFCFC"/>
<path d="M88.6174 74.243L89.2906 74.9207L91.2242 76.7588L93.8245 76.4338L95.8561 75.8243L96.4515 74.8226L97.9156 73.884L98.1167 71.9447L98.7488 72.0884L99.598 67.7487L98.7057 64.6041L96.9819 61.6161L95.8327 57.1342L96.2349 52.997L92.4999 52.25L89.6269 52.9395L89.0523 54.3473C89.0523 54.3473 88.8655 55.6115 88.8512 55.6689C88.8368 55.7264 88.9374 56.9905 88.9374 56.9905L88.6931 59.0591L88.319 61.6644L87.1407 64.6305C87.1407 64.6305 86.5719 67.5559 86.3688 67.5559C86.1656 67.5559 86.4826 68.9698 86.4826 68.9698L87.7019 71.9016L88.6174 74.243Z" fill="white"/>
<path d="M92.0596 49.6244C89.9838 49.8843 88.4722 51.7203 88.616 53.8076C88.5718 57.6863 89.0075 59.0801 87.2665 61.3026C85.5255 63.5251 84.4644 65.1622 84.0389 66.7491C83.7801 67.745 83.6414 68.7413 83.6414 69.7703C83.6414 69.7703 83.6046 70.1912 84.0389 69.7989C84.4747 69.4066 85.6967 69.5778 86.3073 70.6707C86.9179 71.7635 88.0471 73.4595 88.0471 73.4595L88.616 74.2434L89.3995 74.0221C89.3995 74.0221 90.1856 73.4992 89.3995 72.3658C88.9593 71.7154 88.4154 71.1424 87.7879 70.6699C87.7879 70.6699 85.9258 69.7179 85.6102 68.6221C85.3042 66.7461 85.8105 64.8285 87.0044 63.349C87.8893 62.3034 86.8105 64.1868 86.4801 64.8739C85.7442 66.4057 85.66 68.4698 85.6865 69.4891C85.7013 69.9184 86.78 70.1939 87.0447 70.3986C87.2172 70.5319 86.3879 68.8452 86.4801 68.9701C86.8083 65.0663 88.5599 64.197 89.6631 58.8169C88.8438 58.3644 88.9538 57.1531 89.8416 56.856C89.3985 56.2895 89.2358 55.5524 89.3995 54.8517C89.6605 54.0052 89.9655 53.9138 90.3025 53.8828C90.6395 53.8519 91.4599 54.2184 91.3611 55.854C91.7519 55.809 92.147 55.809 92.5378 55.854C92.5378 55.854 92.2326 54.3289 93.363 53.8061C93.9928 53.4985 94.7531 53.726 95.1101 54.3289C95.5252 55.1388 95.4579 56.1119 94.9343 56.856C95.5243 57.1208 95.714 57.8643 95.3261 58.3811L96.2853 61.3004C96.2853 61.3004 97.5471 63.784 98.1562 65.1785C98.5197 65.9976 98.7695 66.8624 98.8993 67.7489H99.5964C99.5964 67.7489 100.701 65.0708 98.1562 62.4899C97.9836 62.2915 98.1045 62.4442 98.1562 62.4899C98.2078 62.5356 100.774 64.882 100.162 67.9666C100.652 68.3132 102.193 68.5926 101.905 70.2326C102.487 70.3285 102.648 70.2326 102.648 70.2326C103.045 68.5478 102.908 66.7814 102.257 65.1777C101.539 63.4466 100.504 61.8651 99.2047 60.5151C98.2291 59.4621 97.6976 58.0726 97.7227 56.6371C97.8443 54.815 97.5763 52.9878 96.9377 51.2769C96.4127 50.2455 95.3467 49.6028 94.1897 49.6206C93.4811 49.5513 92.7675 49.5535 92.0596 49.628V49.6244Z" fill="black"/>
<path d="M89.2905 74.9213C89.2905 74.9213 91.6931 76.8851 93.954 75.9538C94.816 75.6455 97.1145 74.3288 97.9146 73.8847C97.9146 73.8847 97.3013 76.8681 97.6007 77.2847C97.9 77.7014 94.3324 76.857 92.7197 76.9196C91.107 76.9823 89.9801 77.1269 88.4522 77.2073C88.9301 76.5736 84.4006 71.5594 83.6735 69.9471C83.3749 69.2855 85.8425 69.6354 85.8425 69.6354L89.2905 74.9213Z" fill="black"/>
<path d="M84.7441 70.4794C83.739 70.6468 83.8596 71.2117 83.4392 71.5855C83.0189 71.9594 82.6203 71.9144 82.1661 72.1872C81.7118 72.46 81.4773 72.8648 81.6764 73.8028C81.8207 74.385 81.7559 74.9993 81.4935 75.5386C81.3578 75.9604 81.5378 76.633 82.4412 76.6662C83.2885 76.6708 84.1319 76.7875 84.9486 77.0134C86.3497 77.3357 87.2224 78.2236 88.1589 77.456C88.4185 77.2788 88.6273 77.0367 88.7638 76.7537C88.9004 76.4706 88.9596 76.1566 88.9367 75.8432C88.7816 75.189 88.4376 74.5948 87.9472 74.1348C87.3114 73.5348 86.8035 72.812 86.4551 72.0102C86.1675 71.4579 85.7507 70.312 84.7441 70.4794Z" fill="#F0B800"/>
<path d="M98.8815 67.3838C99.1138 67.3838 99.5405 64.396 99.534 64.9088C100.18 66.0006 100.074 67.3341 100.074 67.3341L100.009 75.3803L98.0508 71.2542C98.0508 71.2542 99.0491 68.3742 98.8815 67.3838Z" fill="black"/>
<path d="M103.872 74.3199C103.747 73.3678 103.449 73.5675 103.109 73.1588C102.769 72.7501 102.989 72.2452 102.746 71.8089C102.503 71.3726 102.481 70.9528 101.59 71.1112C100.699 71.2696 99.9817 72.5971 98.6558 71.7054C98.1997 71.3546 97.9036 70.3949 97.8421 71.2462C97.8359 72.2378 97.7129 73.2252 97.4757 74.188C97.1267 75.4983 96.5313 76.2607 97.2237 77.1693C97.3817 77.4196 97.6026 77.624 97.8645 77.762C98.1263 77.9 98.4198 77.9667 98.7156 77.9555C99.3388 77.8324 99.9117 77.5279 100.362 77.0801C100.947 76.5016 101.644 76.049 102.411 75.7505C102.939 75.4983 103.996 75.2721 103.872 74.3199Z" fill="#F0B800"/>
<path d="M99.6394 68.3172C99.6394 68.3172 97.8853 67.9655 98.1286 69.4617C98.372 70.9579 98.9654 71.2461 98.9654 71.2461C99.175 71.4034 99.4292 71.4885 99.6913 71.4885C99.9534 71.4885 100.209 71.4034 100.419 71.2461C100.875 70.9753 101.269 70.6115 101.575 70.1784C101.575 70.1784 102.032 69.4151 100.979 68.8665C100.569 68.6041 100.116 68.418 99.6394 68.3172Z" fill="black"/>
<path d="M90.5577 54.8047C90.86 54.8047 91.1048 55.2191 91.1048 55.7301C91.1045 55.8445 91.0917 55.9585 91.0665 56.0701C90.8656 56.2947 90.6123 56.4662 90.3291 56.5693C90.2182 56.461 90.1323 56.3298 90.0773 56.1848C90.0223 56.0399 89.9995 55.8847 90.0105 55.7301C90.0105 55.2191 90.2553 54.8047 90.5577 54.8047Z" fill="black"/>
<path d="M93.9217 54.7207C94.1551 54.745 94.3697 54.86 94.5192 55.0409C94.6688 55.2219 94.7412 55.4543 94.721 55.6882C94.7044 56.0371 94.5597 56.3676 94.3147 56.6166C94.2019 56.7183 93.5979 56.4484 93.2986 56.2936C93.2028 56.1071 93.1635 55.8967 93.1857 55.6882C93.1857 55.1536 93.4807 54.7207 93.9217 54.7207Z" fill="black"/>
<path d="M91.1036 56.6368C90.7075 56.8721 90.3315 57.1401 89.9802 57.4383C89.9051 57.4936 89.8438 57.5658 89.8017 57.6491C89.7595 57.7323 89.7383 57.8242 89.7383 57.9175C89.7383 58.0108 89.7595 58.1029 89.8017 58.1861C89.8438 58.2694 89.9051 58.3416 89.9802 58.3969C90.3843 58.7924 90.8241 59.1498 91.2937 59.4647C91.4881 59.6306 91.7303 59.7303 91.9851 59.7495C92.2398 59.7687 92.4939 59.7065 92.7109 59.5716C93.3377 59.2973 94.4191 58.6868 94.4191 58.6868C94.4191 58.6868 95.5945 57.7406 94.4191 57.2067C93.2436 56.6729 93.4742 56.7185 92.7109 56.4279C92.4535 56.2952 92.1628 56.2441 91.8756 56.2814C91.5884 56.3187 91.3186 56.4427 91.1036 56.6368Z" fill="#F0B800"/>
<path d="M24 57.8393V56.7598H30.0143V57.8253H28.9082C28.8499 57.8246 28.792 57.8356 28.738 57.8576C28.684 57.8796 28.635 57.9121 28.5938 57.9534C28.5525 57.9946 28.52 58.0436 28.498 58.0976C28.476 58.1516 28.465 58.2095 28.4657 58.2678V69.6275H32.18C32.18 69.6275 32.8068 69.9829 32.9742 66.7243H34.5228V70.7137H24.014V69.7551H25.1629C25.1629 69.7551 25.654 69.6076 25.654 69.2639V58.225C25.654 58.225 25.6016 57.8696 25.0589 57.8696L24 57.8393Z" fill="black"/>
<path d="M35.3971 62.3184V61.4807L38.259 60.3945H39.3651V69.3975C39.3651 69.3975 39.3857 69.8775 40.0125 69.8775H40.7853V70.7337H35.375V69.8355H36.1861C36.1861 69.8355 36.7296 69.7728 36.7709 69.4388V62.3155L35.3971 62.3184Z" fill="black"/>
<path d="M46.8639 70.737H41.7463V69.8389H42.5405C42.5405 69.8389 43.0832 69.7762 43.1038 69.4001V62.2561H41.6836V61.3779L44.6081 60.375H45.6523V61.6492C45.6523 61.6492 47.9294 60.417 49.2656 60.417C49.629 60.3863 49.9947 60.4356 50.337 60.5614C50.6793 60.6873 50.9898 60.8867 51.2467 61.1456C51.5036 61.4044 51.7006 61.7164 51.8238 62.0597C51.9471 62.4029 51.9936 62.769 51.9601 63.1322V69.3153C51.9878 69.4676 52.0721 69.6039 52.1959 69.6968C52.3198 69.7898 52.4741 69.8326 52.6282 69.8167H53.4393V70.7355H48.3453V69.7769H49.0554C49.1641 69.7678 49.2671 69.7245 49.3496 69.6532C49.4321 69.5819 49.49 69.4864 49.5148 69.3802V63.9905C49.4926 63.4957 49.2762 63.0297 48.9126 62.6934C48.549 62.3571 48.0675 62.1778 47.5725 62.1942C46.9296 62.2775 46.294 62.4101 45.6715 62.5909V69.4008C45.7065 69.5131 45.7757 69.6117 45.8695 69.6828C45.9632 69.7539 46.0767 69.794 46.1943 69.7976H46.8838L46.8639 70.737Z" fill="black"/>
<path d="M55.4714 62.2352H54.0703V61.3997L56.9115 60.3976H58.0604V67.2075C58.0604 67.2075 57.9771 69.3585 60.0035 69.1919C60.6191 69.1435 61.228 69.0313 61.8204 68.8571V62.2566H60.443V61.4211L63.2451 60.377H64.394V69.3408C64.394 69.3408 64.3733 69.7589 64.916 69.8002H65.7272V70.7825H61.819V69.6542C61.819 69.6542 59.8346 70.9705 58.2263 70.9491C58.2263 70.9491 55.5525 71.0966 55.4684 68.046V62.2389L55.4714 62.2352Z" fill="black"/>
<path d="M66.3975 61.5055V60.5469H71.3897V61.4819C71.3897 61.4819 70.2836 61.4399 70.5955 61.9833L72.2245 64.343L73.8328 61.9833C73.8328 61.9833 74.2302 61.5033 72.9552 61.5409V60.5823H76.778V61.5011C76.2961 61.5152 75.8298 61.6754 75.441 61.9605L72.9759 65.2611L76.0465 69.6686C76.3912 69.8334 76.7707 69.9123 77.1526 69.8986V70.7548H72.2436V69.982C72.2436 69.982 73.3498 69.982 72.9958 69.3766L71.2644 66.7912L69.4474 69.423C69.4474 69.423 68.988 69.8618 70.3662 69.8404V70.7172H66.3555V69.861C66.598 69.8814 66.8421 69.8511 67.0723 69.772C67.3024 69.6929 67.5136 69.5668 67.6924 69.4016L70.4075 65.8709L67.7337 61.9627C67.7337 61.9627 67.6091 61.5262 66.3975 61.5055Z" fill="black"/>
<path d="M76.9712 60.0203H76.75V59.4805H77.8384V60.0203H77.629V59.6988H77.4077V60.462H77.6216V60.6714H76.9793V60.4656H77.1843V59.698H76.9631L76.9712 60.0203Z" fill="black"/>
<path d="M77.9492 60.6762V60.4623H78.0562V59.6991H77.9492V59.4668H78.27V59.6946H78.3902V59.9269H78.4927V60.0206H78.6048V59.9137H78.7206V59.7087H78.823V59.472H79.149V59.6932H79.0413V60.4652H79.149V60.6791H78.6092V60.4579H78.8304V60.1275H78.7191V60.23H78.6114V60.3502H78.4957V60.2389H78.3932V60.1238H78.273V60.4453H78.4942V60.6747L77.9492 60.6762Z" fill="black"/>
<path d="M38.1957 58.8426C39.0481 58.8426 39.7391 58.1516 39.7391 57.2992C39.7391 56.4469 39.0481 55.7559 38.1957 55.7559C37.3433 55.7559 36.6523 56.4469 36.6523 57.2992C36.6523 58.1516 37.3433 58.8426 38.1957 58.8426Z" fill="black"/>
</svg>
