<svg width="128" height="128" viewBox="0 0 128 128" fill="none" xmlns="http://www.w3.org/2000/svg">
<rect width="128" height="128" rx="10" fill="#FCFCFC"/>
<path d="M49.8666 58.9292H47.187L45.7271 66.4183H48.1071C49.6775 66.4183 50.8505 66.1214 51.6261 65.5254C52.389 64.94 52.9096 63.9452 53.1753 62.5645C53.4388 61.2389 53.3176 60.2993 52.8331 59.7479C52.3337 59.207 51.3477 58.9292 49.8666 58.9292ZM64 46.1504C45.2171 46.1504 30 54.1485 30 64.0004C30 73.8522 45.2171 81.8504 64 81.8504C82.7829 81.8504 98 73.8522 98 64.0004C98 54.1485 82.7829 46.1504 64 46.1504ZM54.7584 67.2264C54.0274 67.9326 53.1327 68.4629 52.168 68.781C51.216 69.0801 50.0005 69.2455 48.5279 69.2455H45.1725L44.2545 73.9965H40.3466L43.8338 56.1125H51.3371C53.596 56.1125 55.245 56.6979 56.2841 57.8793C57.3148 59.0607 57.6356 60.7193 57.2127 62.8402C57.0597 63.6801 56.7601 64.4861 56.3521 65.239C55.942 65.9538 55.4235 66.6198 54.7562 67.2264H54.7584ZM66.1696 69.2455L67.7081 61.328C67.8845 60.4308 67.8186 59.8157 67.5062 59.4806C67.2087 59.1604 66.5542 58.9949 65.5597 58.9949H62.4721L60.481 69.2455H56.5965L60.0815 51.351H63.9554L63.0267 56.1125H66.4799C68.6623 56.1125 70.154 56.488 70.9743 57.2388C71.8051 58.0023 72.0474 59.2261 71.7286 60.9186L70.0988 69.2476L66.1696 69.2455ZM87.6831 62.8402C87.5301 63.6801 87.2411 64.4861 86.8225 65.239C86.423 65.9538 85.8939 66.6198 85.2394 67.2264C84.4978 67.922 83.6138 68.4629 82.6384 68.781C81.6864 69.0801 80.4688 69.2455 78.9983 69.2455H75.6556L74.727 73.9965H70.8191L74.3063 56.1125H81.8096C84.0685 56.1125 85.7175 56.6979 86.7566 57.892C87.7873 59.0628 88.106 60.7193 87.6831 62.8402ZM80.337 58.9292H77.668L76.2081 66.4183H78.5775C80.1585 66.4183 81.3315 66.1214 82.0965 65.5254C82.87 64.94 83.3906 63.9452 83.6584 62.5645C83.9219 61.2389 83.8008 60.2993 83.3014 59.7479C82.8169 59.207 81.8202 58.9292 80.337 58.9292Z" fill="black"/>
</svg>
