<svg width="128" height="128" viewBox="0 0 128 128" fill="none" xmlns="http://www.w3.org/2000/svg">
<rect width="128" height="128" rx="10" fill="#FCFCFC"/>
<g clip-path="url(#clip0_3827_413050)">
<path d="M70.7718 73.734L70.2655 75.2258H71.0513L70.7718 73.734ZM69.7977 76.4178H69.2918C69.2312 76.4178 69.2087 76.373 69.2312 76.3129L70.3115 73.224C70.334 73.1643 70.3946 73.1191 70.4777 73.1191H71.1724C71.2555 73.1191 71.3236 73.1639 71.3236 73.224L71.913 76.3129C71.9356 76.373 71.913 76.4178 71.8524 76.4178H71.3466C71.301 76.4178 71.286 76.4178 71.2634 76.3954C71.2405 76.373 71.2405 76.3506 71.2405 76.3129L71.1348 75.7432H70.0997L69.9109 76.3129C69.8883 76.3577 69.8883 76.373 69.8658 76.3954C69.8658 76.3954 69.8202 76.4178 69.7977 76.4178Z" fill="#1B1B1B"/>
<path d="M92.8339 76.3583H92.2599C91.988 76.3583 91.7766 76.2986 91.6254 76.1485C91.4742 75.9984 91.4366 75.7886 91.4592 75.5411L91.5874 73.9216C91.61 73.6517 91.6931 73.4419 91.8593 73.2918C92.0256 73.1418 92.237 73.082 92.5164 73.082H93.0904C93.3623 73.082 93.5737 73.1421 93.7249 73.2918C93.8761 73.4419 93.9363 73.6513 93.8912 73.8988L93.8686 74.1314C93.8686 74.2139 93.8231 74.2363 93.7403 74.2363H93.2946C93.2115 74.2363 93.189 74.1915 93.189 74.1314L93.2115 73.9216C93.2115 73.8167 93.2115 73.7342 93.1664 73.689C93.1209 73.6443 93.0381 73.6293 92.9321 73.6293H92.5695C92.4638 73.6293 92.3807 73.6517 92.3351 73.689C92.29 73.7338 92.252 73.8163 92.252 73.9216L92.1238 75.4735C92.1238 75.5784 92.1238 75.6609 92.1693 75.7061C92.2144 75.7509 92.2975 75.7658 92.4032 75.7658H92.7658C92.8719 75.7658 92.9546 75.7434 93.0227 75.7061C93.0678 75.6613 93.1054 75.5788 93.1054 75.4735L93.128 75.2637C93.128 75.1812 93.1735 75.1588 93.2562 75.1588H93.7019C93.7851 75.1588 93.8076 75.2036 93.8076 75.2637L93.7851 75.4963C93.7625 75.7662 93.6794 75.9611 93.5131 76.1033C93.3172 76.2911 93.1058 76.3583 92.8339 76.3583Z" fill="#1B1B1B"/>
<path d="M95.2428 75.7886H95.6205C95.7265 75.7886 95.8097 75.7658 95.8774 75.7285C95.9225 75.6833 95.9605 75.6012 95.9605 75.4959L96.0887 73.944C96.0887 73.8391 96.0887 73.7566 96.0432 73.7114C95.9981 73.6666 95.915 73.6513 95.8093 73.6513H95.4317C95.326 73.6513 95.2428 73.6741 95.1748 73.7114C95.1292 73.7566 95.0916 73.8387 95.0916 73.944L94.9634 75.4959C94.9634 75.6008 94.9634 75.6833 95.0085 75.7285C95.054 75.7662 95.1372 75.7886 95.2428 75.7886ZM95.6885 76.3583H95.0995C94.8276 76.3583 94.6158 76.2986 94.465 76.1485C94.3138 75.9984 94.2762 75.7886 94.2992 75.5411L94.4274 73.9216C94.45 73.6517 94.5331 73.4419 94.6994 73.2918C94.8656 73.1418 95.077 73.082 95.3564 73.082H95.9454C96.2174 73.082 96.4288 73.1421 96.58 73.2918C96.7312 73.4419 96.7688 73.6513 96.7462 73.8988L96.618 75.5183C96.5954 75.7882 96.5123 75.998 96.346 76.1481C96.1944 76.2911 95.9605 76.3583 95.6885 76.3583Z" fill="#1B1B1B"/>
<path d="M99.623 73.0586H100.409C100.492 73.0586 100.514 73.1034 100.514 73.1635L100.258 76.2524C100.258 76.3121 100.212 76.3573 100.129 76.3573H99.6836C99.623 76.3573 99.5779 76.3125 99.5779 76.2524L99.7667 73.8157H99.7442L99.0645 75.5397C99.042 75.5998 99.004 75.6446 98.9133 75.6446H98.4676C98.407 75.6446 98.3619 75.5998 98.3394 75.5397L97.9388 73.8157H97.9162L97.7274 76.2524C97.7274 76.2972 97.7048 76.3121 97.7048 76.3349C97.6823 76.3573 97.6597 76.3573 97.6217 76.3573H97.176C97.1158 76.3573 97.0703 76.3125 97.0703 76.2524L97.3272 73.1635C97.3272 73.1034 97.3723 73.0586 97.4555 73.0586H98.2412C98.2867 73.0586 98.3243 73.081 98.3243 73.1187L98.7475 74.9252H98.7926L99.5102 73.1187C99.5399 73.0814 99.555 73.0586 99.623 73.0586Z" fill="#1B1B1B"/>
<path d="M101.694 74.6557H102.268C102.374 74.6557 102.456 74.6329 102.524 74.5956C102.57 74.5508 102.607 74.4683 102.607 74.363L102.653 73.943C102.653 73.8381 102.653 73.7556 102.607 73.7104C102.562 73.6656 102.479 73.6503 102.373 73.6503H101.799C101.754 73.6503 101.739 73.6731 101.739 73.7104L101.656 74.6325C101.633 74.6329 101.656 74.6557 101.694 74.6557ZM101.399 76.3573H100.953C100.893 76.3573 100.848 76.3125 100.848 76.2524L101.105 73.1635C101.105 73.1038 101.15 73.0586 101.233 73.0586H102.524C102.796 73.0586 103.008 73.1183 103.136 73.2684C103.287 73.4185 103.325 73.6283 103.302 73.8754L103.257 74.3551C103.234 74.625 103.151 74.8199 102.985 74.9625C102.819 75.1047 102.607 75.1723 102.328 75.1723H101.648C101.603 75.1723 101.587 75.1947 101.587 75.2324L101.504 76.1993C101.505 76.3125 101.46 76.3573 101.399 76.3573Z" fill="#1B1B1B"/>
<path d="M104.865 73.6669L104.359 75.1587H105.144L104.865 73.6669ZM103.876 76.3358H103.37C103.309 76.3358 103.287 76.291 103.309 76.2309L104.39 73.142C104.412 73.0823 104.473 73.0371 104.556 73.0371H105.251C105.334 73.0371 105.402 73.0823 105.402 73.142L105.991 76.2309C106.014 76.291 105.991 76.3358 105.931 76.3358H105.425C105.379 76.3358 105.364 76.3358 105.342 76.3134C105.319 76.291 105.319 76.2682 105.319 76.2309L105.213 75.6612H104.171L103.982 76.2309C103.959 76.2757 103.959 76.291 103.937 76.3134C103.936 76.3358 103.913 76.3358 103.876 76.3358Z" fill="#1B1B1B"/>
<path d="M106.922 76.3367H106.477C106.416 76.3367 106.371 76.2919 106.371 76.2318L106.628 73.1429C106.628 73.0832 106.674 73.038 106.756 73.038H107.157C107.217 73.038 107.285 73.0604 107.308 73.0981L108.214 75.0323H108.237L108.388 73.1205C108.388 73.0604 108.434 73.0156 108.517 73.0156H108.962C109.023 73.0156 109.068 73.0604 109.068 73.1205L108.811 76.2094C108.811 76.2691 108.766 76.3143 108.683 76.3143H108.305C108.222 76.3143 108.177 76.2691 108.139 76.2094L107.232 74.2976H107.21L107.059 76.187C107.028 76.2919 106.983 76.3367 106.922 76.3367Z" fill="#1B1B1B"/>
<path d="M110.599 76.3354H110.154C110.094 76.3354 110.048 76.2906 110.048 76.2305L110.131 75.1359L109.33 73.1644C109.308 73.142 109.33 73.1047 109.33 73.0823C109.353 73.0595 109.375 73.0371 109.413 73.0371H109.987C110.048 73.0371 110.093 73.0823 110.116 73.142L110.538 74.3792H110.584L111.196 73.142C111.218 73.0823 111.279 73.0371 111.324 73.0371H111.898C111.943 73.0371 111.958 73.0371 111.958 73.0595C111.981 73.0823 111.981 73.1047 111.958 73.142L110.84 75.1139L110.757 76.2085C110.728 76.2906 110.683 76.3354 110.599 76.3354Z" fill="#1B1B1B"/>
<path d="M75.4246 73.6677C75.5303 73.6677 75.6135 73.6076 75.6815 73.5177L75.8478 73.2477C75.8929 73.1876 75.8478 73.0977 75.7647 73.0977H75.047H74.7296H74.5182C74.2462 73.0977 74.0349 73.1578 73.8837 73.3075C73.7325 73.4575 73.6268 73.6449 73.6117 73.9145L73.5512 74.604C73.5286 74.8739 73.5967 75.0688 73.7174 75.211C73.8457 75.3611 74.0574 75.4208 74.329 75.4208H74.6235C74.684 75.4208 74.7066 75.376 74.7066 75.3159L74.7292 74.9784C74.7292 74.9183 74.684 74.8735 74.6235 74.8735H74.4572C74.3515 74.8735 74.291 74.8511 74.2459 74.8134C74.2007 74.7686 74.1857 74.6861 74.2007 74.5808L74.2613 73.951C74.2613 73.8461 74.3064 73.7636 74.3444 73.7184C74.3895 73.6732 74.4727 73.6583 74.5787 73.6583L75.4246 73.6677Z" fill="#1B1B1B"/>
<path d="M74.6827 74.0488C74.6221 74.0488 74.5996 74.0936 74.5996 74.1537L74.577 74.4912C74.577 74.5513 74.6221 74.5961 74.6827 74.5961H74.8485C74.9546 74.5961 75.0148 74.6185 75.0599 74.6562C75.1054 74.6936 75.1205 74.7835 75.1054 74.8888L75.0449 75.5186C75.0449 75.6235 74.9998 75.706 74.9618 75.7512C74.9166 75.796 74.8335 75.8113 74.7274 75.8113H74.5992H74.3878H73.859C73.7533 75.8113 73.6701 75.871 73.6021 75.9614L73.4358 76.2313C73.3907 76.2914 73.4358 76.3814 73.5189 76.3814H74.2591H74.5762H74.8105C75.0825 76.3814 75.2939 76.3213 75.4451 76.1716C75.5963 76.0215 75.7016 75.8341 75.717 75.5646L75.7776 74.8751C75.8001 74.6052 75.7324 74.4103 75.6113 74.2681C75.4831 74.118 75.2713 74.0583 74.9997 74.0583L74.6827 74.0488Z" fill="#1B1B1B"/>
<path d="M77.8179 76.3804H76.1487C76.0885 76.3804 76.043 76.3357 76.043 76.2755L76.3149 73.2319C76.3149 73.1717 76.36 73.127 76.4432 73.127H78.1124C78.1729 73.127 78.2185 73.1717 78.1955 73.2319L78.1729 73.5693C78.1729 73.6291 78.1278 73.6742 78.0673 73.6742H77.01C76.9649 73.6742 76.9494 73.697 76.9494 73.7344L76.8893 74.3865C76.8893 74.4313 76.9118 74.4463 76.9494 74.4463H77.8183C77.8784 74.4463 77.924 74.4914 77.924 74.5516L77.9014 74.8887C77.9014 74.9488 77.8563 74.9936 77.7732 74.9936H76.9043C76.8592 74.9936 76.8441 75.016 76.8441 75.0537L76.7836 75.766C76.7836 75.8112 76.8061 75.8261 76.8441 75.8261H77.9014C77.9616 75.8261 78.0071 75.8709 77.9841 75.931L77.9616 76.2681C77.9236 76.3353 77.878 76.3804 77.8179 76.3804Z" fill="#1B1B1B"/>
<path d="M79.6151 76.3801H79.0637C78.7918 76.3801 78.5954 76.3199 78.4521 76.1703C78.3239 76.0202 78.2633 75.8328 78.2859 75.5632L78.4371 73.9438C78.4597 73.6739 78.5428 73.479 78.709 73.3368C78.8753 73.1867 79.0867 73.127 79.3436 73.127H79.8949C80.1669 73.127 80.3632 73.1867 80.4839 73.3368C80.6122 73.4868 80.6728 73.6966 80.6502 73.9438L80.6276 74.1764C80.6276 74.2589 80.5825 74.2813 80.4994 74.2813H80.0766C80.0161 74.2813 79.9706 74.2361 79.9706 74.1764L79.9931 73.9666C79.9931 73.8617 79.9931 73.7791 79.948 73.734C79.9029 73.6892 79.8197 73.6739 79.7137 73.6739H79.374C79.2679 73.6739 79.1852 73.6966 79.1397 73.734C79.0946 73.7791 79.0566 73.8613 79.0566 73.9666L78.9283 75.5185C78.9283 75.6234 78.9283 75.7059 78.9734 75.751C79.0186 75.7958 79.0791 75.8112 79.1848 75.8112H79.5248C79.6305 75.8112 79.7137 75.7884 79.7588 75.751C79.8043 75.7059 79.8419 75.6237 79.8419 75.5185L79.8649 75.3087C79.8649 75.2261 79.91 75.2038 79.9931 75.2038H80.4163C80.4994 75.2038 80.5219 75.2485 80.5219 75.3087L80.4994 75.5412C80.4768 75.8112 80.3937 76.006 80.2274 76.1483C80.0758 76.3125 79.8645 76.3801 79.6151 76.3801Z" fill="#1B1B1B"/>
<path d="M81.98 76.3808H81.5569C81.4737 76.3808 81.4512 76.3361 81.4512 76.2759L81.6851 73.7344C81.6851 73.6896 81.6626 73.6742 81.64 73.6742H81.051C80.9904 73.6742 80.9453 73.6295 80.9453 73.5693L80.9679 73.2319C80.9679 73.1717 81.013 73.127 81.0961 73.127H83.0222C83.0824 73.127 83.1279 73.1717 83.1279 73.2319L83.1054 73.5693C83.1054 73.6291 83.0602 73.6742 82.9771 73.6742H82.3881C82.343 73.6742 82.3276 73.697 82.3276 73.7344L82.0936 76.2759C82.0857 76.3357 82.0477 76.3808 81.98 76.3808Z" fill="#1B1B1B"/>
<path d="M84.0961 73.2319L83.8242 76.2755C83.8242 76.3357 83.7787 76.3804 83.6955 76.3804H83.2502C83.1897 76.3804 83.1445 76.3357 83.1445 76.2755L83.4165 73.2319C83.4165 73.1717 83.462 73.127 83.5447 73.127H83.9904C84.0811 73.127 84.0961 73.1643 84.0961 73.2319Z" fill="#1B1B1B"/>
<path d="M88.2627 76.3804H87.6887C87.4168 76.3804 87.2204 76.3203 87.0771 76.1706C86.9489 76.0206 86.8883 75.8332 86.9109 75.5636L87.0621 73.9442C87.0847 73.6742 87.1678 73.4794 87.334 73.3368C87.4999 73.1867 87.7117 73.127 87.9685 73.127H88.5425C88.8144 73.127 89.0108 73.1871 89.1541 73.3368C89.3053 73.4868 89.3429 73.6966 89.3203 73.9442L89.1691 75.5636C89.1462 75.8335 89.0634 76.0284 88.8972 76.1706C88.746 76.3129 88.5342 76.3804 88.2627 76.3804ZM87.8395 75.8332H88.2021C88.3078 75.8332 88.3909 75.8108 88.4364 75.7734C88.4816 75.7283 88.5195 75.6458 88.5195 75.5408L88.6478 73.9889C88.6478 73.884 88.6478 73.8015 88.6027 73.7564C88.5572 73.7116 88.4744 73.6962 88.3683 73.6962H88.0058C87.9001 73.6962 87.8169 73.719 87.7714 73.7564C87.7259 73.8011 87.6883 73.8837 87.6883 73.9889L87.56 75.5408C87.56 75.6458 87.56 75.7283 87.6052 75.7734C87.6733 75.788 87.7338 75.8332 87.8395 75.8332Z" fill="#1B1B1B"/>
<path d="M86.0897 74.2148H86.5354C86.5956 74.2148 86.6411 74.17 86.6636 74.1099L86.6862 73.9598C86.7088 73.6899 86.6411 73.495 86.5199 73.3524C86.3917 73.2023 86.1799 73.1426 85.9309 73.1426H85.3796C85.1076 73.1426 84.8962 73.2023 84.745 73.3524C84.5792 73.5025 84.4881 73.7123 84.4731 73.9598L84.3219 75.5793C84.2993 75.8492 84.3448 76.044 84.4881 76.1863C84.6164 76.3364 84.8282 76.3961 85.0997 76.3961H85.6511C85.923 76.3961 86.1344 76.336 86.2856 76.1863C86.4519 76.0362 86.5425 75.8264 86.5576 75.5793L86.6407 74.7397C86.6407 74.6572 86.6181 74.612 86.535 74.612H85.6436H85.5153C85.4322 74.612 85.3871 74.6945 85.4096 74.7621L85.5379 75.032C85.583 75.1145 85.6661 75.1821 85.7722 75.1821H85.8779C85.9234 75.1821 85.9385 75.2044 85.9234 75.2422L85.9005 75.5569C85.9005 75.6622 85.8553 75.7443 85.8173 75.7895C85.7722 75.8342 85.6891 75.8492 85.583 75.8492H85.243C85.1373 75.8492 85.0771 75.8268 85.0316 75.7895C84.9865 75.7443 84.9711 75.6622 84.9865 75.5569L85.1147 74.005C85.1147 73.9001 85.1599 73.8176 85.1979 73.7724C85.243 73.7272 85.3261 73.7123 85.4322 73.7123H85.7722C85.8779 73.7123 85.961 73.7347 86.0066 73.7724C86.0521 73.8101 86.0671 73.8997 86.0521 74.005L86.0291 74.1323C85.999 74.1774 86.0216 74.2148 86.0897 74.2148Z" fill="#1B1B1B"/>
<path d="M89.8888 73.5915H89.9418C90.0024 73.5915 90.0475 73.5687 90.0475 73.5239C90.0475 73.4866 90.0174 73.4564 89.9493 73.4564C89.9192 73.4564 89.9042 73.4564 89.8888 73.4638V73.5915ZM89.8888 73.839H89.7831V73.3967C89.8207 73.3892 89.8812 73.3817 89.9568 73.3817C90.04 73.3817 90.0776 73.3967 90.1081 73.4116C90.1306 73.4344 90.1532 73.4642 90.1532 73.509C90.1532 73.5617 90.1156 73.599 90.0625 73.6139V73.6214C90.1077 73.6363 90.1306 73.674 90.1457 73.7263C90.1607 73.7939 90.1682 73.8237 90.1757 73.8387H90.0625C90.0475 73.8237 90.04 73.7785 90.0245 73.7337C90.017 73.6811 89.9869 73.6662 89.9339 73.6662H89.8808L89.8888 73.839ZM89.6168 73.6065C89.6168 73.8013 89.7605 73.9589 89.9644 73.9589C90.1607 73.9589 90.3044 73.8013 90.3044 73.6065C90.3044 73.4116 90.1611 73.2466 89.9644 73.2466C89.7605 73.2544 89.6168 73.4116 89.6168 73.6065ZM90.4176 73.6065C90.4176 73.8614 90.2213 74.0563 89.9568 74.0563C89.6999 74.0563 89.4961 73.8614 89.4961 73.6065C89.4961 73.3589 89.6999 73.1641 89.9568 73.1641C90.2213 73.1645 90.4176 73.3593 90.4176 73.6065Z" fill="#1B1B1B"/>
<path d="M34.0117 64.7711L36.9603 64.5071C37.1376 65.3868 37.5002 66.0343 38.048 66.4503C38.5959 66.866 39.3289 67.0742 40.2473 67.0742C41.2301 67.0742 41.9632 66.8904 42.4465 66.5222C42.8954 66.2389 43.1757 65.7545 43.1958 65.2269C43.203 64.9247 43.0902 64.6316 42.8816 64.4112C42.5716 64.1342 42.1983 63.9366 41.7938 63.8357C41.4395 63.7237 40.634 63.532 39.3772 63.2601C37.75 62.9084 36.606 62.4684 35.9454 61.9408C35.027 61.2053 34.5679 60.3095 34.5679 59.2542C34.571 58.5615 34.8002 57.8881 35.2202 57.3353C35.6952 56.7166 36.342 56.2498 37.081 55.9921C38.0278 55.6636 39.0269 55.5088 40.0296 55.5363C41.9149 55.5363 43.3324 55.9041 44.2832 56.6399C45.2102 57.3342 45.7632 58.4138 45.7818 59.5665L42.7608 59.6864C42.6318 58.9988 42.3579 58.503 41.9391 58.1993C41.5203 57.8956 40.8838 57.7436 40.03 57.7436C39.1441 57.7436 38.4593 57.9035 37.976 58.2233C37.674 58.3961 37.4895 58.7167 37.4927 59.0629C37.5018 59.3929 37.6732 59.6978 37.9518 59.8785C38.3386 60.1665 39.2652 60.4623 40.7314 60.766C41.8504 60.9688 42.9445 61.2901 43.9938 61.7255C44.6636 62.0244 45.2395 62.4967 45.6615 63.0927C46.5011 64.4163 46.4532 66.1116 45.5408 67.3866C45.0321 68.0757 44.324 68.5947 43.5105 68.8736C42.4541 69.2355 41.3406 69.4064 40.2235 69.3773C38.3223 69.3773 36.8641 68.9856 35.8492 68.2018C34.8335 67.418 34.2211 66.2747 34.0117 64.7711Z" fill="#1B1B1B"/>
<path d="M46.9883 59.1102H49.8886V69.1854H46.9883V59.1102ZM46.9883 55.5117H49.8886V58.1503H46.9883V55.5117Z" fill="#1B1B1B"/>
<path d="M56.6542 59.1107V61.2696H54.7209V65.3474C54.6999 65.8279 54.7158 66.3087 54.7692 66.7869C54.8112 66.9283 54.9062 67.0486 55.0352 67.1228C55.1785 67.2171 55.3463 67.2674 55.5185 67.2666C55.9163 67.2367 56.307 67.1476 56.6783 67.0026L56.9202 69.0656C56.1958 69.343 55.4247 69.4813 54.6485 69.4734C54.1703 69.4801 53.6949 69.3988 53.2468 69.2334C52.8886 69.1132 52.5707 68.8975 52.3285 68.6095C52.1116 68.3026 51.9707 67.949 51.9176 67.5782C51.8365 66.9578 51.804 66.3323 51.821 65.7068V61.2696H50.3711V59.1107H51.821V57.1195L54.7213 55.5605V59.1107H56.6542Z" fill="#1B1B1B"/>
<path d="M63.8578 63.452C63.8415 62.7004 63.6238 62.1248 63.205 61.7249C62.3235 60.9124 60.9563 60.9226 60.0875 61.7488C59.6497 62.2058 59.4221 62.8226 59.4589 63.452H63.8578ZM63.7129 65.9229L66.6373 66.3546C66.302 67.2591 65.6727 68.0272 64.8489 68.5375C64.043 69.0334 63.0281 69.2813 61.8038 69.2813C59.8705 69.2813 58.4443 68.7214 57.526 67.6021C56.6077 66.4827 56.2368 65.3473 56.4141 64.1957C56.4141 62.5488 56.8974 61.2613 57.8641 60.3337C58.8402 59.3978 60.1571 58.8957 61.5136 58.9424C63.1571 58.9424 64.4622 59.43 65.4288 60.4056C66.3958 61.3811 66.8546 62.8764 66.8063 64.8911H59.4351C59.4098 65.5681 59.6627 66.2262 60.1361 66.7141C60.5898 67.1463 61.199 67.3801 61.8279 67.3616C62.2408 67.3758 62.6473 67.2579 62.9877 67.0257C63.3325 66.7503 63.5783 66.3715 63.6887 65.9464" fill="#1B1B1B"/>
<path d="M68.0117 69.1846V55.5117H71.1534V66.786H78.8872V69.1846H68.0117Z" fill="#F3000B"/>
<path d="M82.0068 64.1966C82.0068 65.1882 82.2645 65.9398 82.7799 66.4513C83.8526 67.4999 85.5744 67.4999 86.6467 66.4513C87.1625 65.9237 87.4202 65.1638 87.4202 64.1726C87.4202 63.1809 87.1625 62.4376 86.6467 61.9414C85.5744 60.8928 83.8526 60.8928 82.7799 61.9414C82.2649 62.4694 82.0068 63.221 82.0068 64.1966ZM78.9375 64.0284C78.9466 63.1393 79.1972 62.2691 79.6627 61.5096C80.1416 60.6944 80.8577 60.0426 81.7166 59.6387C82.6358 59.1994 83.6451 58.9774 84.6652 58.9908C86.3408 58.9908 87.7187 59.4788 88.7981 60.4543C89.8577 61.3902 90.4499 62.7409 90.4171 64.1486C90.4574 65.5717 89.8653 66.9401 88.7981 67.8909C87.7187 68.8825 86.357 69.3783 84.7135 69.3783C83.7132 69.3775 82.7244 69.1646 81.8132 68.7544C80.9404 68.3871 80.2054 67.7581 79.7106 66.9554C79.2043 66.0726 78.9533 65.068 78.9854 64.0528" fill="#F3000B"/>
<path d="M101.077 62.1562L98.1769 62.612C98.1179 62.1519 97.8844 61.7319 97.5246 61.4365C97.1295 61.1614 96.653 61.0263 96.1712 61.0526C95.5217 61.0247 94.8907 61.2683 94.4311 61.7245C93.9961 62.172 93.7788 62.9239 93.7788 63.9792C93.7788 65.0345 94.0044 65.8741 94.4553 66.4976C94.916 66.9868 95.57 67.25 96.2437 67.2174C96.7396 67.2374 97.2269 67.0846 97.6212 66.7856C97.9758 66.4976 98.2256 66.0101 98.3705 65.3221L101.222 65.7779C100.916 66.9612 100.344 67.8566 99.5065 68.4644C98.6689 69.0718 97.5329 69.3759 96.0988 69.3759C94.4715 69.3759 93.1744 68.9202 92.2077 68.0087C91.2411 67.0972 90.7578 65.8337 90.7578 64.2185C90.7578 62.5872 91.2411 61.3159 92.2077 60.4044C93.1744 59.4929 94.4878 59.0371 96.1471 59.0371C97.5004 59.0371 98.572 59.2929 99.3616 59.8048C100.194 60.3745 100.801 61.2141 101.078 62.1794" fill="#F3000B"/>
<path d="M101.848 69.1846V55.5117H104.748V62.6599L108.131 59.1098H111.708L107.962 62.8041L111.974 69.1846H108.856L106.101 64.675L104.748 65.9704V69.1846H101.848Z" fill="#F3000B"/>
<path d="M30.0706 67.5059H19.6779V58.1508H30.0702L30.0706 67.5059ZM24.7775 53.3529C26.206 53.3517 27.4901 54.2173 28.0162 55.5358H21.6599C22.1357 54.2318 23.3802 53.3608 24.7775 53.3529ZM30.5056 55.5122C29.9447 52.8154 27.5519 50.8809 24.7775 50.8809C22.0035 50.8809 19.6111 52.8154 19.0498 55.5122H17.0195V69.9052H32.729V55.5122H30.5056Z" fill="#1B1B1B"/>
<path d="M29.0786 57.2871L24.6314 63.0441L22.3115 61.1252L20.668 63.1639L24.825 66.5702L31.0602 58.6304L29.0786 57.2871Z" fill="#F3000B"/>
</g>
<defs>
<clipPath id="clip0_3827_413050">
<rect width="95" height="25.5376" fill="white" transform="translate(17 50.8809)"/>
</clipPath>
</defs>
</svg>
