<svg width="128" height="128" viewBox="0 0 128 128" fill="none" xmlns="http://www.w3.org/2000/svg">
<rect width="128" height="128" rx="10" fill="#FCFCFC"/>
<path fill-rule="evenodd" clip-rule="evenodd" d="M43.8726 53H14.3648C12.5049 53 10.9793 54.5255 11.0002 56.3855V67.6494C11.0002 69.5093 12.5049 71.0349 14.3857 71.0349H28.3455L34.7402 74.5875L33.2983 71.0349H43.8726C45.7325 71.0349 47.2581 69.5302 47.2581 67.6494V56.3855C47.2372 54.5046 45.7325 53 43.8726 53ZM13.7378 55.6122C13.3199 55.6331 13.0064 55.8003 12.7974 56.072C12.5885 56.3437 12.5258 56.678 12.5676 57.0751C13.4453 62.6339 14.2603 66.3747 15.0126 68.3182C15.3052 69.0287 15.6395 69.3631 16.0575 69.3422C16.6844 69.3004 17.4159 68.4436 18.2936 66.7717C18.7533 65.8313 19.4639 64.4103 20.4252 62.5085C21.2193 65.3089 22.3269 67.4196 23.7061 68.8197C24.0823 69.2168 24.5003 69.4049 24.8764 69.3631C25.2108 69.3422 25.4825 69.1541 25.6705 68.8197C25.8168 68.548 25.8795 68.2137 25.8586 67.8375C25.775 66.4792 25.9004 64.5983 26.2766 62.1951C26.6527 59.7082 27.1334 57.911 27.7185 56.8452C27.8439 56.6153 27.8857 56.4064 27.8648 56.1347C27.8439 55.8003 27.6767 55.5077 27.4051 55.2988C27.1334 55.0898 26.8199 54.9644 26.4647 55.0062C26.0258 55.0271 25.7123 55.2361 25.4825 55.654C24.563 57.3259 23.9151 60.0426 23.5181 63.8042C22.9538 62.3832 22.4732 60.7113 22.1179 58.7469C21.9507 57.8692 21.5537 57.4513 20.9058 57.4931C20.467 57.5139 20.0908 57.8274 19.7982 58.3917L16.5591 64.5774C16.0157 62.425 15.5142 59.8127 15.0544 56.6989C14.929 55.9048 14.4902 55.5495 13.7378 55.6122ZM42.3053 56.678C43.3502 56.9079 44.1443 57.4722 44.6667 58.3917C45.1474 59.1858 45.3773 60.1471 45.3773 61.3174C45.3773 62.8429 45.0011 64.2431 44.2279 65.5178C43.3293 67.0016 42.1799 67.733 40.7379 67.733C40.4872 67.733 40.2155 67.7121 39.9438 67.6494C38.8989 67.4196 38.1048 66.8553 37.5823 65.9358C37.1017 65.1208 36.8718 64.1386 36.8718 63.0101C36.8718 61.4846 37.248 60.0844 38.0212 58.8305C38.9198 57.3468 40.0901 56.6153 41.5112 56.6153C41.741 56.5944 42.0127 56.6153 42.3053 56.678ZM41.6783 64.6819C42.2217 64.2013 42.5978 63.4699 42.8068 62.4876C42.8695 62.1533 42.9113 61.7771 42.9113 61.401C42.9113 60.9621 42.8277 60.5023 42.6396 60.0426C42.4098 59.4575 42.1172 59.144 41.7619 59.0813C41.2186 58.9768 40.717 59.2694 40.2155 60.0008C39.8184 60.565 39.5677 61.1502 39.4214 61.7562C39.3378 62.0906 39.3169 62.4668 39.3169 62.8429C39.3169 63.2818 39.4005 63.7415 39.5886 64.2013C39.8184 64.7864 40.111 65.0999 40.4663 65.1626C40.8424 65.2462 41.2395 65.079 41.6783 64.6819ZM35.3672 58.3917C34.8238 57.4513 34.0297 56.887 33.0057 56.678C32.734 56.6153 32.4624 56.5944 32.2116 56.5944C30.7905 56.5944 29.6411 57.3259 28.7216 58.8096C27.9484 60.0635 27.5723 61.4637 27.5723 62.9892C27.5723 64.1386 27.8021 65.0999 28.2828 65.9149C28.8261 66.8553 29.5993 67.4196 30.6442 67.6285C30.9159 67.6912 31.1876 67.7121 31.4384 67.7121C32.8803 67.7121 34.0297 66.9807 34.9283 65.497C35.7015 64.2222 36.0777 62.822 36.0777 61.2965C36.0777 60.1471 35.8478 59.1858 35.3672 58.3917ZM33.5073 62.4876C33.2983 63.4699 32.9221 64.2013 32.3788 64.6819C31.9399 65.0581 31.5429 65.2253 31.1876 65.1626C30.8323 65.079 30.5398 64.7864 30.3099 64.2013C30.1218 63.7415 30.0382 63.2818 30.0382 62.8429C30.0382 62.4668 30.0591 62.1115 30.1427 61.7562C30.2681 61.1502 30.5189 60.565 30.9368 60.0008C31.4175 59.2694 31.9399 58.9768 32.4833 59.0813C32.8385 59.1649 33.1311 59.4575 33.361 60.0426C33.5491 60.5023 33.6326 60.9621 33.6326 61.401C33.6117 61.7771 33.5908 62.1533 33.5073 62.4876Z" fill="#7F54B3"/>
<path fill-rule="evenodd" clip-rule="evenodd" d="M50.9994 58.2656C49.9963 59.2478 49.5156 60.4808 49.5156 62.0063C49.5156 63.6155 49.9963 64.932 50.9785 65.9351C51.9607 66.9382 53.2355 67.4398 54.8237 67.4398C55.2834 67.4398 55.8059 67.3562 56.3701 67.2099V64.8066C55.8477 64.9529 55.4088 65.0365 55.0118 65.0365C54.2177 65.0365 53.6116 64.7648 53.131 64.2424C52.6503 63.699 52.4204 62.9885 52.4204 62.0899C52.4204 61.254 52.6503 60.5435 53.1101 60.021C53.5907 59.4777 54.155 59.206 54.8655 59.206C55.3252 59.206 55.8059 59.2896 56.3492 59.4359V57.0326C55.8686 56.9072 55.3043 56.8445 54.7401 56.8445C53.2354 56.8027 51.9816 57.2834 50.9994 58.2656ZM61.2811 56.8027C59.9228 56.8027 58.857 57.2625 58.0838 58.1611C57.3105 59.0597 56.9344 60.3345 56.9344 61.9645C56.9344 63.7199 57.3105 65.0783 58.0838 66.0187C58.8361 66.9591 59.9437 67.4189 61.4065 67.4189C62.8067 67.4189 63.8934 66.9382 64.6457 66.0187C65.398 65.0783 65.7951 63.7617 65.7951 62.069C65.7951 60.3763 65.4189 59.0806 64.6457 58.1611C63.8307 57.2416 62.7231 56.8027 61.2811 56.8027ZM62.4514 64.4932C62.1798 64.9111 61.7827 65.1201 61.2811 65.1201C60.8005 65.1201 60.4452 64.9111 60.1945 64.4932C59.9437 64.0752 59.8183 63.2393 59.8183 61.9854C59.8183 60.0419 60.2989 59.0806 61.302 59.0806C62.3469 59.0806 62.8694 60.0628 62.8694 62.0272C62.8694 63.2602 62.7231 64.0752 62.4514 64.4932ZM73.1094 57.0744L72.566 59.3314C72.4406 59.9165 72.2943 60.5017 72.1899 61.1077L71.8973 62.675C71.6256 61.1077 71.2285 59.2478 70.7479 57.0535H67.3206L66.025 67.1472H68.5954L69.285 60.1882L71.0405 67.1472H72.8795L74.5722 60.2091L75.3036 67.1472H77.9995L76.6411 57.0535H73.1094V57.0744ZM85.4391 57.0744L84.8958 59.3314C84.7704 59.9165 84.6241 60.5017 84.5196 61.1077L84.227 62.675C83.9554 61.1077 83.5583 59.2478 83.0777 57.0535H79.6504L78.3547 67.1472H80.9252L81.6148 60.1882L83.3702 67.1472H85.2093L86.8811 60.2091L87.6125 67.1472H90.3083L88.95 57.0535H85.4391V57.0744ZM93.8401 63.1766H96.2642V61.0868H93.8401V59.2269H96.6195V57.0744H91.1025V67.1681H96.6195V65.0156H93.8192V63.1766H93.8401ZM104.31 61.5884C104.582 61.1286 104.749 60.648 104.749 60.1673C104.749 59.2269 104.373 58.4537 103.641 57.9103C102.91 57.367 101.886 57.0744 100.611 57.0744H97.4345V67.1681H100.151V62.5706H100.193L102.408 67.1681H105.292L103.098 62.6124C103.62 62.3825 104.017 62.0481 104.31 61.5884ZM100.13 61.4212V59.0179C100.778 59.0388 101.238 59.1433 101.531 59.3523C101.802 59.5613 101.948 59.8956 101.948 60.3554C101.928 61.045 101.322 61.4003 100.13 61.4212ZM106.337 58.2656C105.355 59.2478 104.853 60.4808 104.853 62.0063C104.853 63.6155 105.334 64.932 106.316 65.9351C107.298 66.9382 108.573 67.4398 110.161 67.4398C110.621 67.4398 111.144 67.3562 111.708 67.2099V64.8066C111.185 64.9529 110.747 65.0365 110.349 65.0365C109.555 65.0365 108.949 64.7648 108.469 64.2424C107.988 63.699 107.758 62.9885 107.758 62.0899C107.758 61.254 107.988 60.5435 108.448 60.021C108.928 59.4777 109.493 59.206 110.203 59.206C110.663 59.206 111.144 59.2896 111.687 59.4359V57.0326C111.206 56.9072 110.642 56.8445 110.078 56.8445C108.594 56.8027 107.34 57.2834 106.337 58.2656ZM115.177 64.9947V63.1557H117.601V61.0659H115.177V59.206H117.977V57.0535H112.46V67.1472H117.998V64.9947H115.177Z" fill="black"/>
</svg>
