<svg width="128" height="128" viewBox="0 0 128 128" fill="none" xmlns="http://www.w3.org/2000/svg">
<rect width="128" height="128" rx="10" fill="#FCFCFC"/>
<path d="M53.8517 81.9321C54.6136 81.0463 54.0763 79.8751 52.8325 79.7105L52.1377 79.6186V81.0473V82.4759L52.8277 82.3982C53.3333 82.3412 53.607 82.2166 53.8517 81.9321ZM62.23 84.9988C63.0316 84.5842 63.4019 83.778 63.4019 82.4471C63.4019 81.438 62.9376 80.4337 62.3047 80.0739C62.0634 79.9367 61.4544 79.7786 60.9516 79.7225L60.0373 79.6206V82.3386C60.0373 84.7704 60.0642 85.0729 60.2933 85.2119C60.5947 85.3947 61.6993 85.2732 62.23 84.9988ZM49.2119 85.8025C49.2119 85.5762 49.3094 85.5099 49.6425 85.5099C50.4247 85.5099 50.5285 85.1547 50.5285 82.4785C50.5285 80.2923 50.5045 80.0733 50.2359 79.8047C50.075 79.6438 49.7788 79.5121 49.5776 79.5121C49.3045 79.5121 49.2119 79.4349 49.2119 79.2072C49.2119 78.9083 49.2603 78.9033 51.6622 78.9525C53.867 78.9977 54.1746 79.0357 54.7313 79.332C56.1056 80.0634 56.1794 81.9051 54.8669 82.7163C54.5939 82.885 54.2485 83.023 54.0992 83.023C53.7453 83.023 55.6603 84.9739 56.3229 85.2883C56.951 85.5864 57.8987 85.5759 58.1542 85.268C58.3074 85.0834 58.3549 84.4225 58.3549 82.4768C58.3549 80.122 58.3333 79.9115 58.071 79.7197C57.9148 79.6055 57.6021 79.5121 57.3761 79.5121C57.0627 79.5121 56.9652 79.4427 56.9652 79.2195C56.9652 78.9393 57.0627 78.927 59.2751 78.927C61.8756 78.927 62.9748 79.1278 63.9059 79.7731C65.7129 81.0254 65.6551 84.0639 63.8005 85.3145C62.8002 85.9889 62.0335 86.0951 58.1649 86.095H54.6977L53.5416 84.6322C52.9057 83.8277 52.3297 83.1695 52.2615 83.1695C52.1934 83.1695 52.1377 83.5498 52.1377 84.0146C52.1377 85.0487 52.411 85.5101 53.0237 85.5101C53.3567 85.5101 53.4543 85.5764 53.4543 85.8027C53.4543 86.0818 53.3567 86.0952 51.3331 86.0952C49.3094 86.0952 49.2119 86.0818 49.2119 85.8027V85.8025ZM46.1052 85.1262C47.536 84.0838 47.533 80.943 46.1003 79.9228C45.4639 79.4697 44.194 79.3978 43.5066 79.776C42.7433 80.196 42.19 81.3413 42.19 82.5015C42.19 83.6768 42.7499 84.8468 43.5066 85.253C44.1763 85.6125 45.5283 85.5465 46.1052 85.1262ZM43.5798 86.2596C42.2732 85.9128 40.9348 84.732 40.6066 83.6365C40.047 81.7687 40.9842 79.8948 42.914 79.0228C43.8696 78.591 45.5104 78.6087 46.5388 79.062C47.3818 79.4335 48.3864 80.4216 48.711 81.1986C49.0021 81.8951 48.9698 83.2642 48.6456 83.9739C48.3223 84.6817 47.2431 85.7036 46.4788 86.0257C45.8313 86.2986 44.2173 86.4288 43.5798 86.2596ZM31.0837 82.6207C29.5115 77.7461 29.3634 77.4641 28.3753 77.4641C28.0975 77.4641 28 77.388 28 77.1715C28 76.8911 28.0975 76.8789 30.3406 76.8789C32.5837 76.8789 32.6812 76.8911 32.6812 77.1715C32.6812 77.3975 32.5837 77.4641 32.2528 77.4641C31.8629 77.4641 31.3649 77.7775 31.3645 78.0231C31.3644 78.0777 31.7058 79.195 32.1231 80.5059C32.6938 82.2986 32.9157 82.8292 33.0181 82.6461C33.093 82.5123 33.5634 81.1763 34.0635 79.6774C35.291 75.9976 35.2547 75.9964 36.4817 79.7624C37.0005 81.3546 37.4627 82.7059 37.509 82.7653C37.5552 82.8246 37.951 81.7858 38.3885 80.4568C39.2736 77.7685 39.27 77.5713 38.3351 77.4918C37.92 77.4565 37.8014 77.3833 37.8014 77.1627C37.8014 76.8954 37.9201 76.8789 39.8494 76.8789C41.7999 76.8789 41.8974 76.8928 41.8974 77.1715C41.8974 77.4095 41.7999 77.4641 41.3742 77.4641C40.4027 77.4641 40.1939 77.8429 38.6901 82.3356C37.6391 85.4753 37.2774 86.3926 37.1038 86.3586C36.9511 86.3287 36.5767 85.3753 35.9374 83.3888C35.4195 81.7796 34.9502 80.4148 34.8944 80.3558C34.8386 80.2969 34.336 81.6299 33.7776 83.3182C33.0246 85.5944 32.7023 86.3877 32.5304 86.3877C32.3564 86.3877 31.9961 85.4494 31.0837 82.6207Z" fill="#21759A"/>
<path d="M77.9456 82.2341C79.0304 81.7809 78.9213 80.1324 77.7857 79.8171C76.5721 79.4801 76.5672 79.4851 76.5672 81.0496V82.4394H77.0107C77.2547 82.4394 77.6754 82.347 77.9456 82.2341ZM73.6414 85.804C73.6414 85.578 73.7389 85.5114 74.0698 85.5114C74.3054 85.5114 74.5964 85.4133 74.7163 85.2934C75.0125 84.9971 75.1601 83.4406 75.0662 81.6016C74.9798 79.9075 74.7895 79.5136 74.0576 79.5136C73.7324 79.5136 73.6414 79.4465 73.6414 79.2066C73.6414 78.9045 73.6821 78.9004 76.1649 78.9535C78.8213 79.0103 79.0546 79.0626 79.815 79.7715C80.8279 80.7157 80.2769 82.6507 78.9096 82.951L78.4716 83.0472L79.1652 83.8507C80.4739 85.3672 81.8151 85.9318 82.3373 85.1863C82.5208 84.9244 82.565 84.3984 82.565 82.48C82.565 80.2938 82.5411 80.0748 82.2724 79.8062C82.1115 79.6453 81.8153 79.5136 81.6141 79.5136C81.3459 79.5136 81.2484 79.4356 81.2484 79.221C81.2484 78.9376 81.3459 78.9285 84.3788 78.9285H87.5091L87.6129 79.9611C87.6699 80.5291 87.6794 81.031 87.634 81.0764C87.4523 81.2581 87.1366 80.9765 87.0529 80.5582C86.9376 79.9819 86.6777 79.8587 85.3079 79.7311L84.1742 79.6255V80.8147V82.004L84.7959 81.9117C85.4804 81.8102 85.7834 81.537 85.7834 81.0217C85.7834 80.7814 85.8679 80.6839 86.076 80.6839C86.3516 80.6839 86.3685 80.7814 86.3685 82.3662C86.3685 83.951 86.3516 84.0486 86.076 84.0486C85.8496 84.0486 85.7834 83.951 85.7834 83.618C85.7834 83.0901 85.3267 82.732 84.6537 82.732H84.1742V83.6666C84.1742 84.9877 84.4425 85.2947 85.5879 85.2841C86.8892 85.272 87.1998 85.1488 87.4126 84.5601C87.5367 84.2169 87.6902 84.0486 87.8791 84.0486C88.1163 84.0486 88.1462 84.1204 88.0691 84.5057C88.0189 84.7571 87.9777 85.218 87.9777 85.5297V86.0966L83.5525 86.0896L79.1272 86.0826L77.9809 84.6266C77.3504 83.8259 76.7743 83.1707 76.7008 83.1707C76.4038 83.1707 76.6986 85.1731 77.0262 85.3806C77.1358 85.4501 77.4065 85.5079 77.6278 85.5091C77.9318 85.5108 78.0301 85.5828 78.0301 85.8039C78.0301 86.0835 77.9325 86.0965 75.8357 86.0965C73.7389 86.0965 73.6414 86.0836 73.6414 85.804ZM70.6915 81.0621C71.7917 80.4932 71.7917 78.534 70.6915 77.9651C70.4714 77.8513 69.9589 77.7581 69.5526 77.7581H68.8139V79.5136V81.2691H69.5526C69.9589 81.2691 70.4714 81.1759 70.6915 81.0621ZM65.4492 85.804C65.4492 85.5755 65.5467 85.5114 65.8947 85.5114C66.1673 85.5114 66.4737 85.378 66.684 85.1677C66.979 84.8727 67.0433 84.6182 67.1366 83.3756C67.1964 82.5791 67.2067 81.1084 67.1595 80.1073C67.059 77.9758 66.876 77.5692 65.9833 77.4933C65.5606 77.4574 65.4492 77.3865 65.4492 77.1534C65.4492 76.8663 65.5245 76.86 68.4116 76.9062C71.3658 76.9534 71.3759 76.9547 72.0822 77.3699C73.2856 78.0772 73.663 79.4137 73.0197 80.6895C72.5307 81.6591 71.5014 82.1468 69.9438 82.1468H68.7856L68.8363 83.5496C68.8821 84.8155 68.9207 84.9798 69.2324 85.232C69.4223 85.3857 69.7679 85.5114 70.0004 85.5114C70.3255 85.5114 70.423 85.579 70.423 85.804C70.423 86.0851 70.3255 86.0966 67.9361 86.0966C65.5467 86.0966 65.4492 86.0851 65.4492 85.804ZM95.731 84.8531C95.731 83.4358 95.7527 83.3171 96.012 83.3171C96.2057 83.3171 96.3231 83.4545 96.3901 83.7595C96.509 84.3009 97.0862 85.0094 97.6429 85.2973C98.5623 85.7727 99.6808 85.4179 99.6808 84.6509C99.6808 84.1237 99.2788 83.768 97.9254 83.0977C96.7179 82.4996 96.247 82.129 95.9366 81.5323C95.4884 80.671 95.8642 79.4575 96.712 79.0282C97.5422 78.6079 98.1652 78.6035 99.498 79.0088C99.7448 79.0838 99.8271 79.0498 99.8271 78.8724C99.8271 78.7334 99.9478 78.6359 100.12 78.6359C100.391 78.6359 100.412 78.7334 100.412 79.9525C100.412 81.1225 100.383 81.2691 100.149 81.2691C99.9818 81.2691 99.8194 81.0851 99.7034 80.7643C99.3083 79.6719 98.0035 79.1429 97.3402 79.8062C96.726 80.4203 97.0614 80.8406 98.8264 81.6688C100.443 82.4277 100.997 83.0411 100.997 84.073C100.997 85.4023 100.215 86.1939 98.7502 86.345C98.1525 86.4067 97.8154 86.3542 97.2761 86.1157C96.5558 85.7971 96.3162 85.8127 96.3162 86.1784C96.3162 86.2943 96.1845 86.3892 96.0236 86.3892C95.7496 86.3892 95.731 86.2917 95.731 84.8531ZM89.2943 84.8531C89.2943 83.4146 89.3129 83.3171 89.5869 83.3171C89.7671 83.3171 89.8804 83.4154 89.8819 83.5731C89.8863 84.0428 90.5316 84.9657 91.0475 85.2402C92.0746 85.7867 93.2441 85.4385 93.2441 84.5861C93.2441 84.1183 92.8071 83.7612 91.2692 82.9721C89.7201 82.1772 89.2943 81.6783 89.2943 80.658C89.2943 79.8958 89.6405 79.3521 90.364 78.978C90.9611 78.6692 92.1682 78.6589 92.7632 78.9574C93.2084 79.1807 93.2379 79.1784 93.3217 78.9145C93.3703 78.7613 93.5373 78.6359 93.6928 78.6359C93.9513 78.6359 93.9755 78.7487 93.9755 79.9525C93.9755 81.1538 93.9509 81.2691 93.6943 81.2691C93.5031 81.2691 93.3595 81.1067 93.2457 80.7619C93.0233 80.0881 92.3255 79.5136 91.7294 79.5136C90.6869 79.5136 90.2426 80.4037 91.0132 80.9483C91.2345 81.1047 91.9421 81.4974 92.5858 81.8211C94.113 82.589 94.446 82.9524 94.525 83.9377C94.6027 84.9057 94.1964 85.5812 93.2485 86.06C92.4485 86.4642 91.6199 86.4755 90.779 86.0939C90.1194 85.7946 89.8795 85.8172 89.8795 86.1784C89.8795 86.2943 89.7478 86.3892 89.5869 86.3892C89.3129 86.3892 89.2943 86.2917 89.2943 84.8531Z" fill="#464646"/>
<path d="M58.5353 58.0436C57.1871 54.0418 56.0845 50.6935 56.0849 50.6029C56.0854 50.5088 56.434 50.4092 56.8978 50.3708C57.8517 50.2917 58.2993 49.9729 57.9862 49.5957C57.8142 49.3884 57.5017 49.3724 55.4021 49.463C54.0885 49.5197 53.0137 49.5192 53.0137 49.4618C53.0137 49.2103 53.9524 48.0511 54.94 47.0829C57.4683 44.6044 60.842 43.2359 64.4242 43.2359C66.0451 43.2359 67.2566 43.4404 68.9377 43.9975C70.3002 44.4491 72.4274 45.6467 73.2418 46.4206L73.6477 46.8064L73.004 46.9941C72.1853 47.2328 71.5182 47.913 71.3163 48.7148C71.1059 49.5503 71.3634 50.3919 72.3248 52.0111C74.0382 54.8968 74.0488 56.0405 72.4125 61.4308C71.8046 63.4335 71.2742 65.1052 71.2338 65.1455C71.1934 65.1859 71.1272 65.1272 71.0866 65.0151C70.8627 64.397 66.1797 50.5031 66.1797 50.457C66.1797 50.4267 66.4595 50.3953 66.8014 50.3873C67.8125 50.3636 68.1546 50.2179 68.1546 49.8112V49.4531L64.1722 49.4459C61.0468 49.4402 60.1742 49.4794 60.1173 49.6277C59.9685 50.0154 60.2184 50.2429 60.8897 50.331C61.2647 50.3802 61.6642 50.4328 61.7773 50.4478C61.903 50.4644 62.4014 51.6096 63.0591 53.393L64.1351 56.311L62.6357 60.8172C61.811 63.2956 61.1026 65.3225 61.0614 65.3215C61.0202 65.3204 59.8834 62.0454 58.5353 58.0436ZM71.1535 68.65C71.1535 68.6291 72.1512 65.749 73.3706 62.2499C76.1099 54.3894 76.294 53.729 76.3032 51.7274C76.3093 50.3936 76.3357 50.2351 76.5117 50.4757C76.8557 50.9462 77.5533 52.908 77.7968 54.0895C78.0627 55.38 78.1022 57.9814 77.8754 59.2621C77.3713 62.1076 75.8419 64.9332 73.7646 66.8564C72.6495 67.8888 71.1535 68.9164 71.1535 68.65ZM57.1098 68.4229C53.87 66.3441 51.6371 63.0108 50.9731 59.2621C50.7318 57.8994 50.7894 55.4665 51.0985 53.9686C51.3629 52.6878 51.9169 51.1581 52.0635 51.3047C52.1261 51.3673 58.5727 68.9744 58.5727 69.0828C58.5727 69.2611 58.0459 69.0235 57.1098 68.4229ZM62.601 70.4222C61.0875 70.2282 60.435 70.0258 60.5294 69.7797C60.5731 69.6658 61.4743 67.0531 62.532 63.9737C63.5897 60.8942 64.5093 58.2759 64.5757 58.1552C64.6699 57.9837 64.7329 58.0316 64.8642 58.3746C65.5163 60.0783 68.9592 69.5966 68.9592 69.6959C68.9592 69.9985 65.6118 70.6153 64.2086 70.5712C63.8847 70.5611 63.1613 70.494 62.601 70.4222ZM66.9831 71.683C74.6085 70.3533 80.2097 63.0063 79.3593 55.4494C78.9329 51.6595 77.5645 48.8602 74.818 46.1595C71.9419 43.3312 68.4408 41.8947 64.4242 41.8947C61.6496 41.8947 59.0586 42.6138 56.6436 44.0541C55.1405 44.9506 52.8586 47.1561 51.9166 48.623C48.3768 54.1349 48.607 60.752 52.5195 65.9577C55.8502 70.3893 61.5236 72.6351 66.9831 71.683ZM61.5943 72.56C58.3573 71.9484 55.5369 70.469 53.2314 68.1734C47.087 62.0553 46.9496 52.1916 52.9212 45.9037C55.203 43.501 58.1627 41.8726 61.3449 41.2689C62.9193 40.9703 65.9292 40.9703 67.5035 41.2689C73.2836 42.3654 78.0582 46.7536 79.698 52.4766C81.8688 60.0529 78.2441 67.9807 71.0729 71.3412C69.0819 72.2743 67.3606 72.6569 64.8631 72.7217C63.3916 72.7599 62.3904 72.7104 61.5943 72.56Z" fill="#464646"/>
</svg>
