<svg width="128" height="128" viewBox="0 0 128 128" fill="none" xmlns="http://www.w3.org/2000/svg">
<rect width="128" height="128" rx="10" fill="#FCFCFC"/>
<g clip-path="url(#clip0_3827_413058)">
<path d="M90.7136 64.2709V56.8631H93.4075V53.6469H90.7136V49.7637H86.5523V53.6469H84.4414V56.8631H86.5523V63.85C86.5523 67.8219 89.3687 70.1818 92.3413 70.6701L93.5825 67.3812C91.8499 67.1654 90.7284 65.8922 90.7123 64.2709H90.7136Z" fill="url(#paint0_linear_3827_413058)"/>
<path d="M69.7191 63.0984V57.5303C69.7191 57.3278 69.7057 57.1359 69.6855 56.9492C69.3247 52.4506 62.8263 52.4598 57.7926 54.187L59.2479 57.0657C62.5261 55.5357 64.4876 55.9301 65.1728 56.6845C65.1903 56.7044 65.2078 56.7229 65.224 56.7441C65.2253 56.7467 65.228 56.7494 65.2294 56.752C65.5794 57.2166 65.4946 57.9485 65.4946 58.5242C61.2108 58.5242 56.6523 59.0841 56.6523 63.7019C56.6523 67.2132 61.1273 69.4712 65.8029 66.1253L66.4962 67.7704H70.504C70.1459 65.8381 69.7178 64.1837 69.7178 63.0997L69.7191 63.0984ZM65.5282 63.0679C62.2326 66.6931 59.2143 63.281 62.3053 61.792C63.2154 61.4876 64.4499 61.4744 65.5282 61.4744V63.0679Z" fill="url(#paint1_linear_3827_413058)"/>
<path d="M76.117 57.2288C76.117 55.8576 78.3504 55.2157 81.8736 56.7973L83.092 53.8882C78.3504 52.48 71.8749 52.3529 71.8332 57.2288C71.813 59.5648 73.3383 60.8235 75.5327 61.6255C77.0526 62.1814 79.2484 62.4686 79.2417 63.6598C79.2336 65.215 75.8302 65.4532 72.7325 63.362L71.4805 66.516C75.705 68.5833 83.5618 68.6416 83.5201 63.46C83.4783 58.3379 76.1156 59.2154 76.1156 57.2301L76.117 57.2288Z" fill="url(#paint2_linear_3827_413058)"/>
<path d="M39.4844 46.1406L33.4532 62.6093L30.5654 53.7165H26.2695L31.0784 65.8625C31.4876 66.8968 31.4876 68.0444 31.0784 69.0787C30.5412 70.434 29.646 71.5934 27.4664 71.8819V75.4833C31.7125 75.4833 34.0065 72.9169 36.0542 67.2946L44.0806 46.1406H39.4844Z" fill="url(#paint3_linear_3827_413058)"/>
<path d="M48.5106 53.1582C43.31 53.1582 41.2422 56.7714 41.2422 60.5925C41.2422 64.4135 43.2791 67.8163 48.5106 67.8163C53.7422 67.8163 55.7926 64.17 55.7831 60.5925C55.771 56.2354 53.516 53.1582 48.5106 53.1582ZM48.5106 64.6861C46.4024 64.6861 45.3658 63.1416 45.3658 60.5925C45.3658 58.0434 46.4859 56.2394 48.5106 56.2354C50.5354 56.2407 51.6286 58.0447 51.6286 60.5925C51.6286 63.1403 50.6175 64.6861 48.5106 64.6861Z" fill="url(#paint4_linear_3827_413058)"/>
<path d="M39.5517 77.9774C39.5517 78.5227 39.3511 78.9515 38.95 79.2625C38.5488 79.5736 37.9941 79.7284 37.2887 79.7284C36.5832 79.7284 36.0043 79.6212 35.5547 79.4055V78.4565C35.8401 78.5875 36.1417 78.6921 36.4621 78.7675C36.7825 78.843 37.0813 78.8814 37.3573 78.8814C37.7612 78.8814 38.0601 78.8059 38.2526 78.655C38.4451 78.5042 38.5407 78.3003 38.5407 78.0462C38.5407 77.8172 38.4518 77.6227 38.2755 77.4625C38.0991 77.3024 37.7343 77.1145 37.1823 76.8961C36.6128 76.6697 36.2117 76.4103 35.9774 76.1192C35.7445 75.828 35.6274 75.4786 35.6274 75.0696C35.6274 74.5574 35.8118 74.1537 36.182 73.8599C36.5523 73.5661 37.049 73.4192 37.6724 73.4192C38.2957 73.4192 38.8651 73.5475 39.4575 73.8056L39.133 74.6249C38.5784 74.3959 38.0816 74.2808 37.6468 74.2808C37.3169 74.2808 37.0652 74.3509 36.8956 74.4925C36.7246 74.6342 36.6398 74.8208 36.6398 75.0537C36.6398 75.2139 36.6734 75.3502 36.7421 75.4627C36.8107 75.5765 36.9225 75.6837 37.08 75.7843C37.2362 75.8849 37.5189 76.0186 37.9255 76.1827C38.3845 76.3706 38.7197 76.5453 38.9338 76.7081C39.1479 76.8709 39.304 77.0536 39.4036 77.2587C39.5033 77.4625 39.5531 77.7034 39.5531 77.9814L39.5517 77.9774ZM44.2058 79.645H40.6732V73.5052H44.2058V74.3536H41.6936V76.0252H44.0469V76.8656H41.6936V78.7927H44.2058V79.645ZM51.0125 76.5665C51.0125 77.5658 50.758 78.3427 50.2505 78.8972C49.7416 79.4518 49.0227 79.7284 48.0911 79.7284C47.1595 79.7284 46.4244 79.4531 45.9195 78.9039C45.4147 78.3533 45.1616 77.5724 45.1616 76.5586C45.1616 75.5447 45.416 74.7665 45.9236 74.2239C46.4325 73.6812 47.1568 73.4086 48.1005 73.4086C49.0442 73.4086 49.747 73.6839 50.2532 74.2358C50.7594 74.7877 51.0138 75.5646 51.0138 76.5665H51.0125ZM46.2453 76.5665C46.2453 77.3222 46.4002 77.8953 46.7111 78.2858C47.0221 78.6762 47.4812 78.8721 48.0911 78.8721C48.7009 78.8721 49.156 78.6789 49.4643 78.2924C49.7725 77.9059 49.9274 77.3302 49.9274 76.5665C49.9274 75.8028 49.7739 75.243 49.4683 74.8525C49.1627 74.4634 48.7063 74.2689 48.0991 74.2689C47.492 74.2689 47.0248 74.4634 46.7125 74.8525C46.4002 75.2417 46.2453 75.8134 46.2453 76.5665ZM56.6277 75.7472H55.474V79.6437H54.4656V75.7472H53.6888V75.2853L54.4656 74.9836V74.6818C54.4656 74.1325 54.5962 73.7262 54.8587 73.4615C55.1212 73.1968 55.5211 73.0645 56.0596 73.0645C56.4123 73.0645 56.7596 73.1214 57.1016 73.2365L56.8364 73.9843C56.5887 73.9062 56.3517 73.8665 56.1269 73.8665C55.9021 73.8665 55.7338 73.9353 55.6288 74.0743C55.5251 74.2133 55.4726 74.4211 55.4726 74.6977V74.9995H56.6264V75.7472H56.6277ZM61.5335 77.3143C61.5335 78.0727 61.3356 78.6656 60.9398 79.0905C60.544 79.5167 59.9934 79.7284 59.2866 79.7284C58.845 79.7284 58.4546 79.6305 58.1167 79.4346C57.7774 79.2387 57.5176 78.9568 57.3345 78.5902C57.1527 78.2236 57.0612 77.7974 57.0612 77.313C57.0612 76.5599 57.2578 75.9722 57.6509 75.5487C58.044 75.1265 58.5973 74.9147 59.3121 74.9147C60.027 74.9147 60.5372 75.1305 60.9357 75.5633C61.3342 75.9961 61.5335 76.5784 61.5335 77.313V77.3143ZM58.0951 77.3143C58.0951 78.3864 58.4977 78.9224 59.3041 78.9224C60.1105 78.9224 60.4995 78.3864 60.4995 77.3143C60.4995 76.2422 60.0984 75.7221 59.2946 75.7221C58.8733 75.7221 58.5677 75.8597 58.3778 76.1337C58.188 76.4077 58.0938 76.8008 58.0938 77.3143H58.0951ZM64.9961 74.9161C65.198 74.9161 65.3649 74.9306 65.4955 74.9584L65.3972 75.8783C65.2516 75.8446 65.1025 75.8278 64.953 75.828C64.5518 75.828 64.226 75.9564 63.9769 76.2145C63.7279 76.4725 63.6027 76.8061 63.6027 77.2177V79.645H62.5984V75.0008H63.3846L63.5165 75.82H63.5677C63.7238 75.5434 63.9285 75.3237 64.1802 75.1609C64.432 74.9981 64.7039 74.9174 64.9934 74.9174L64.9961 74.9161ZM75.8025 74.6686C75.6544 74.6686 75.5386 74.707 75.4619 74.7811C75.3838 74.8565 75.3448 74.9492 75.3448 75.0564C75.3448 75.1517 75.3703 75.2655 75.4228 75.4058C75.4659 75.5209 75.4821 75.6374 75.47 75.7512C75.4027 76.1906 75.2519 76.6645 75.0203 77.1581C74.8978 77.4242 74.6851 77.7802 74.3903 78.2156L73.911 78.8443L73.841 78.1547L73.5165 75.325C73.5071 75.2364 73.4923 75.1543 73.4708 75.0802C73.4008 74.8089 73.2015 74.6659 72.8973 74.6659C72.7855 74.6659 72.6778 74.6871 72.5769 74.7281C72.3359 74.834 72.1568 74.9756 72.0451 75.149L72.0168 75.1927L72.1932 75.554L72.4247 75.3674C72.4597 75.3396 72.4988 75.329 72.5405 75.3277C72.5863 75.3303 72.628 75.4111 72.6549 75.5434L73.3375 79.8092L73.3402 79.8237L73.9945 79.7655L75.0472 78.3771C75.3986 77.8689 75.6827 77.399 75.8913 76.9795C76.0152 76.7306 76.1189 76.4818 76.1996 76.2396C76.2818 75.9921 76.3235 75.7499 76.3235 75.5222C76.3235 75.2946 76.2791 75.0895 76.1929 74.9306C76.096 74.7533 75.9654 74.6646 75.8052 74.6646L75.8025 74.6686ZM79.677 74.7546C79.5168 74.6977 79.3189 74.6699 79.0928 74.6699C78.8666 74.6699 78.6377 74.7096 78.4169 74.789C77.7667 75.0259 77.2632 75.5262 76.9199 76.274C76.686 76.7761 76.5652 77.3219 76.5658 77.8742C76.5658 78.7305 76.8795 79.3261 77.5001 79.6437C77.7263 79.7628 78.0211 79.8224 78.3752 79.8224C78.7293 79.8224 79.1237 79.694 79.5411 79.4386C79.7618 79.3036 79.9503 79.1289 80.1024 78.9184L80.1361 78.8708L79.8843 78.4287L79.7968 78.5147C79.3553 78.9475 78.8881 79.1686 78.4062 79.1686C78.1544 79.1686 77.9552 79.0918 77.799 78.9317C77.7263 78.8575 77.6657 78.7715 77.6199 78.6749C77.5715 78.5743 77.5338 78.4684 77.5096 78.3599C77.484 78.2514 77.4692 78.1547 77.4651 78.0753C77.4611 77.992 77.4584 77.9231 77.4584 77.8675C77.4584 77.8371 77.4584 77.8067 77.4611 77.7749C77.7788 77.7603 78.1436 77.6915 78.5448 77.5724C78.7643 77.5075 78.9864 77.4215 79.2045 77.3196C79.4253 77.2164 79.6259 77.092 79.8022 76.9503C79.9813 76.8074 80.128 76.6393 80.2398 76.4527C80.3542 76.2621 80.4134 76.0239 80.4134 75.7446C80.4134 75.4653 80.303 75.2059 80.0863 74.9981C79.9772 74.8949 79.8399 74.8128 79.677 74.7546ZM78.9945 75.2483C79.1506 75.2483 79.2758 75.2972 79.3755 75.3992C79.4764 75.5011 79.5262 75.6334 79.5262 75.8028C79.5262 75.9722 79.4953 76.1284 79.4334 76.2436C79.3149 76.4752 79.1035 76.6724 78.806 76.8299C78.4024 77.0476 77.9554 77.1763 77.4961 77.2071C77.5324 76.9318 77.6065 76.6552 77.7169 76.3852C77.7775 76.2317 77.8502 76.0821 77.9336 75.9431C78.0157 75.8068 78.1113 75.6837 78.2163 75.5792C78.32 75.4759 78.4344 75.3939 78.5596 75.3343C78.6808 75.2761 78.8275 75.247 78.9931 75.247L78.9945 75.2483ZM84.0537 75.6533L84.2341 74.7864L84.1924 74.7506C84.1305 74.6977 84.0241 74.6739 83.8572 74.6739C83.4856 74.6739 83.1235 74.8168 82.7802 75.0987C82.6267 75.2258 82.4921 75.3634 82.379 75.5103L82.4624 74.793L82.2134 74.6672L82.208 74.6646L81.2185 74.8578H81.2077L81.1216 75.292L81.5403 75.4905L80.9694 79.7192L80.9667 79.7364H81.8176L82.2457 76.5877C82.3938 76.2621 82.6025 75.9987 82.8636 75.8042C82.9808 75.7181 83.1019 75.6533 83.2231 75.6122C83.3442 75.5712 83.4789 75.55 83.6256 75.55C83.7724 75.55 83.8733 75.5659 83.9406 75.599L84.0497 75.652L84.0537 75.6533ZM88.3321 74.6725C88.2137 74.6725 88.114 74.7096 88.0333 74.7837C87.9511 74.8592 87.9094 74.9531 87.9094 75.063C87.9094 75.1596 87.9202 75.2324 87.9404 75.284L88.0171 75.4905C88.0454 75.5659 88.0535 75.6546 88.0413 75.7552C87.9835 76.2965 87.7761 76.9358 87.4261 77.6571L87.1824 78.1693C87.1245 78.2871 87.0774 78.385 87.0465 78.4433L86.5268 79.4214L86.4447 78.5492L86.0125 75.3184C85.9695 75.0921 85.9169 74.9412 85.8537 74.8592C85.8039 74.797 85.7406 74.7493 85.6652 74.7162C85.5911 74.6845 85.4996 74.6686 85.3865 74.6686C85.2734 74.6686 85.163 74.6924 85.0567 74.74C84.778 74.8684 84.5815 75.0312 84.4724 75.2245L84.4495 75.2668L84.6286 75.6281L84.7215 75.5434C84.9463 75.3383 85.0069 75.333 85.0096 75.333C85.0594 75.333 85.0728 75.3489 85.0769 75.3542C85.0863 75.3661 85.1132 75.4097 85.1509 75.55L85.9304 80.0567L85.9331 80.0699H86.0771C85.8954 80.4272 85.6787 80.7118 85.4309 80.9143C85.3111 81.0109 85.194 81.0811 85.0823 81.1221C84.8588 81.2042 84.5976 81.2028 84.3243 81.1221C84.2678 81.1036 84.2234 81.0864 84.1883 81.0705C84.148 81.0506 84.1143 81.0374 84.0887 81.0268L83.9945 80.9924L83.7872 81.6912L83.7831 81.7058L83.8679 81.7349C83.9554 81.764 84.0766 81.7945 84.2287 81.8222C84.3001 81.8342 84.3674 81.8434 84.4361 81.85C84.5074 81.858 84.6097 81.8606 84.7403 81.8606C84.8709 81.8606 85.0325 81.8355 85.2034 81.7852C85.6315 81.6528 85.9681 81.4186 86.1997 81.089C86.6035 80.6125 87.1353 79.7324 87.7788 78.4737L88.2581 77.5817C88.6808 76.7386 88.8962 76.0464 88.8962 75.5249C88.8962 74.8234 88.5893 74.6765 88.3321 74.6765V74.6725ZM92.3238 74.8062C92.1097 74.7149 91.8647 74.6686 91.5995 74.6686C91.3343 74.6686 91.0879 74.7122 90.8685 74.797C90.4336 74.9597 90.0634 75.2496 89.7659 75.6559C89.3257 76.2568 89.1035 76.9517 89.1035 77.7206C89.1035 78.7411 89.4374 79.4015 90.0957 79.6821H90.0984C90.3138 79.7734 90.5575 79.8197 90.8227 79.8197C91.0879 79.8197 91.3356 79.7787 91.5591 79.6953C91.9926 79.5299 92.3642 79.24 92.6604 78.8324C93.1006 78.2315 93.3227 77.5367 93.3227 76.7677C93.3227 76.094 93.1706 75.5699 92.8704 75.2099C92.7244 75.0338 92.5374 74.8948 92.3251 74.8049L92.3238 74.8062ZM92.4261 76.7597C92.4261 77.362 92.3036 77.9112 92.064 78.3956C91.788 78.9542 91.4285 79.2255 90.9654 79.2255C90.3125 79.2255 89.9961 78.7371 89.9961 77.7339C89.9961 77.5671 90.0069 77.3911 90.0298 77.2124C90.1146 76.5374 90.3206 76.0146 90.6396 75.6572C90.8766 75.3925 91.1431 75.2642 91.4541 75.2642C92.1097 75.2642 92.4288 75.7539 92.4288 76.7597H92.4261ZM98.001 78.9925C97.8165 79.1567 97.7129 79.1911 97.6698 79.199C97.6604 79.1805 97.6375 79.109 97.6496 78.8986C97.6577 78.7464 97.7304 78.2871 97.8664 77.5327C97.8866 77.4202 97.9296 77.2005 97.9942 76.8802C98.0602 76.5506 98.0939 76.2555 98.0939 76.0014C98.0939 75.5355 97.9969 75.1914 97.8071 74.977C97.7168 74.8678 97.5975 74.7854 97.4625 74.7387C97.1717 74.6355 96.8109 74.6487 96.473 74.7718C96.022 74.9306 95.6019 75.2205 95.225 75.6334L95.3138 74.8022V74.7917L95.0621 74.6672L95.0567 74.6646L94.0726 74.8578H94.0618L93.9757 75.2933L94.3984 75.4918L93.8276 79.7205L93.8249 79.7377H94.6757L95.1065 76.5506C95.3256 76.2346 95.5973 75.9572 95.9102 75.73C96.0583 75.6228 96.2051 75.5368 96.3491 75.4733C96.4878 75.4124 96.6386 75.382 96.7988 75.382C96.9428 75.382 97.0451 75.4203 97.1084 75.5011C97.1461 75.5487 97.173 75.6149 97.1919 75.6983C97.2121 75.7883 97.2215 75.9392 97.2215 76.147C97.2215 76.3547 97.1676 76.7465 97.0599 77.3103L96.8378 78.4962C96.8149 78.6312 96.7947 78.7649 96.7772 78.8933C96.7597 79.0243 96.7503 79.1196 96.749 79.1818C96.7476 79.244 96.7463 79.2837 96.7463 79.3036C96.7463 79.6397 96.9388 79.8237 97.2888 79.8237C97.4127 79.8237 97.5298 79.7999 97.6402 79.7536C97.9121 79.6437 98.1181 79.4889 98.25 79.2956L98.2823 79.248L98.0831 78.9158L97.9983 78.9912L98.001 78.9925ZM100.863 77.5697C101.083 77.5049 101.305 77.4189 101.523 77.317C101.744 77.2137 101.944 77.0893 102.121 76.9477C102.3 76.8047 102.446 76.6367 102.558 76.45C102.673 76.2595 102.732 76.0212 102.732 75.742C102.732 75.4627 102.621 75.2033 102.405 74.9955C102.296 74.8922 102.158 74.8102 101.995 74.752C101.835 74.695 101.637 74.6672 101.411 74.6672C101.185 74.6672 100.956 74.707 100.735 74.7864C100.085 75.0233 99.5815 75.5236 99.2382 76.2714C99.0043 76.7734 98.8835 77.3193 98.8841 77.8715C98.8841 78.7278 99.1978 79.3234 99.8184 79.6411C100.045 79.7602 100.339 79.8197 100.694 79.8197C101.048 79.8197 101.442 79.6914 101.859 79.4359C102.08 79.3009 102.269 79.1262 102.421 78.9158L102.454 78.8681L102.203 78.4261L102.115 78.5121C101.674 78.9449 101.206 79.1659 100.724 79.1659C100.473 79.1659 100.273 79.0892 100.117 78.929C100.045 78.8549 99.984 78.7689 99.9382 78.6722C99.8898 78.5717 99.8521 78.4658 99.8279 78.3572C99.8023 78.2487 99.7875 78.1521 99.7834 78.0727C99.7794 77.9893 99.7767 77.9205 99.7767 77.8649C99.7767 77.8345 99.7767 77.804 99.7794 77.7722C100.097 77.7577 100.462 77.6889 100.863 77.5697ZM101.313 75.247C101.469 75.247 101.594 75.2959 101.694 75.3978C101.795 75.4997 101.845 75.6321 101.845 75.8015C101.845 75.9709 101.814 76.1271 101.752 76.2422C101.633 76.4739 101.422 76.6711 101.124 76.8286C100.721 77.0462 100.274 77.175 99.8144 77.2058C99.8507 76.9305 99.9248 76.6539 100.035 76.3839C100.096 76.2303 100.168 76.0808 100.252 75.9418C100.334 75.8055 100.43 75.6824 100.535 75.5778C100.638 75.4746 100.753 75.3925 100.878 75.333C100.999 75.2747 101.146 75.2456 101.311 75.2456L101.313 75.247ZM70.9183 74.7546C70.7581 74.6977 70.5602 74.6699 70.334 74.6699C70.1078 74.6699 69.8789 74.7096 69.6582 74.789C69.0079 75.0259 68.5044 75.5262 68.1611 76.274C67.9272 76.7761 67.8065 77.3219 67.807 77.8742C67.807 78.7305 68.1207 79.3261 68.7414 79.6437C68.9675 79.7628 69.2624 79.8224 69.6164 79.8224C69.9705 79.8224 70.3649 79.694 70.7823 79.4386C71.0031 79.3036 71.1915 79.1289 71.3437 78.9184L71.3773 78.8708L71.1256 78.4287L71.0381 78.5147C70.5965 78.9475 70.1294 79.1686 69.6474 79.1686C69.3956 79.1686 69.1964 79.0918 69.0402 78.9317C68.9675 78.8575 68.9069 78.7715 68.8612 78.6749C68.8127 78.5743 68.775 78.4684 68.7508 78.3599C68.7252 78.2514 68.7104 78.1547 68.7064 78.0753C68.7023 77.992 68.6996 77.9231 68.6996 77.8675C68.6996 77.8371 68.6996 77.8067 68.7023 77.7749C69.02 77.7603 69.3849 77.6915 69.7861 77.5724C70.0055 77.5075 70.2276 77.4215 70.4457 77.3196C70.6665 77.2164 70.8671 77.092 71.0435 76.9503C71.2225 76.8074 71.3693 76.6393 71.481 76.4527C71.5954 76.2621 71.6547 76.0239 71.6547 75.7446C71.6547 75.4653 71.5443 75.2059 71.3275 74.9981C71.2185 74.8949 71.0812 74.8128 70.9183 74.7546ZM70.2357 75.2483C70.3919 75.2483 70.5171 75.2972 70.6167 75.3992C70.7177 75.5011 70.7675 75.6334 70.7675 75.8028C70.7675 75.9722 70.7365 76.1284 70.6746 76.2436C70.5561 76.4752 70.3448 76.6724 70.0472 76.8299C69.6436 77.0476 69.1966 77.1763 68.7373 77.2071C68.7737 76.9318 68.8477 76.6552 68.9581 76.3852C69.0187 76.2317 69.0914 76.0821 69.1749 75.9431C69.257 75.8068 69.3526 75.6837 69.4576 75.5792C69.5612 75.4759 69.6757 75.3939 69.8009 75.3343C69.922 75.2761 70.0688 75.247 70.2344 75.247L70.2357 75.2483Z" fill="#A61E69"/>
</g>
<defs>
<linearGradient id="paint0_linear_3827_413058" x1="89.0133" y1="70.6715" x2="89.0133" y2="49.7637" gradientUnits="userSpaceOnUse">
<stop stop-color="#570732"/>
<stop offset="0.04" stop-color="#620A3A"/>
<stop offset="0.16" stop-color="#7B114B"/>
<stop offset="0.29" stop-color="#8E1758"/>
<stop offset="0.44" stop-color="#9B1B61"/>
<stop offset="0.64" stop-color="#A31D67"/>
<stop offset="1" stop-color="#A61E69"/>
</linearGradient>
<linearGradient id="paint1_linear_3827_413058" x1="63.5802" y1="67.7691" x2="63.5802" y2="53.115" gradientUnits="userSpaceOnUse">
<stop stop-color="#570732"/>
<stop offset="0.04" stop-color="#620A3A"/>
<stop offset="0.16" stop-color="#7B114B"/>
<stop offset="0.29" stop-color="#8E1758"/>
<stop offset="0.44" stop-color="#9B1B61"/>
<stop offset="0.64" stop-color="#A31D67"/>
<stop offset="1" stop-color="#A61E69"/>
</linearGradient>
<linearGradient id="paint2_linear_3827_413058" x1="77.5023" y1="67.8263" x2="77.5023" y2="53.0385" gradientUnits="userSpaceOnUse">
<stop stop-color="#570732"/>
<stop offset="0.04" stop-color="#620A3A"/>
<stop offset="0.16" stop-color="#7B114B"/>
<stop offset="0.29" stop-color="#8E1758"/>
<stop offset="0.44" stop-color="#9B1B61"/>
<stop offset="0.64" stop-color="#A31D67"/>
<stop offset="1" stop-color="#A61E69"/>
</linearGradient>
<linearGradient id="paint3_linear_3827_413058" x1="35.175" y1="45.3518" x2="35.175" y2="68.54" gradientUnits="userSpaceOnUse">
<stop stop-color="#77B227"/>
<stop offset="0.47" stop-color="#75B027"/>
<stop offset="0.64" stop-color="#6EAA27"/>
<stop offset="0.75" stop-color="#62A027"/>
<stop offset="0.85" stop-color="#519227"/>
<stop offset="0.93" stop-color="#3B7F28"/>
<stop offset="1" stop-color="#246B29"/>
</linearGradient>
<linearGradient id="paint4_linear_3827_413058" x1="48.5133" y1="67.8163" x2="48.5133" y2="53.1582" gradientUnits="userSpaceOnUse">
<stop stop-color="#570732"/>
<stop offset="0.04" stop-color="#620A3A"/>
<stop offset="0.16" stop-color="#7B114B"/>
<stop offset="0.29" stop-color="#8E1758"/>
<stop offset="0.44" stop-color="#9B1B61"/>
<stop offset="0.64" stop-color="#A31D67"/>
<stop offset="1" stop-color="#A61E69"/>
</linearGradient>
<clipPath id="clip0_3827_413058">
<rect width="76.7368" height="36" fill="white" transform="translate(26.1328 46)"/>
</clipPath>
</defs>
</svg>
