<?xml version="1.0" encoding="utf-8"?>
<!-- Generator: Adobe Illustrator 24.0.1, SVG Export Plug-In . SVG Version: 6.00 Build 0)  -->
<svg version="1.1" id="Layer_1" xmlns="http://www.w3.org/2000/svg" xmlns:xlink="http://www.w3.org/1999/xlink" x="0px" y="0px"
	 viewBox="0 0 1399 548" style="enable-background:new 0 0 1399 548;" xml:space="preserve">
<style type="text/css">
	.st0{fill:#FFF500;}
</style>
<g>
	<g>
		<path class="st0" d="M1158.54,89.93c18.53-9.1,39.29-13.68,59.93-13.14c35.8,0.64,70.5,17.17,94.96,43.06
			c25.8,26.54,41.29,62.3,45.09,98.96c4.52,41.72-5.95,85.26-30.49,119.47c-20.16,28.37-50.36,50.13-84.61,57.52
			c-24.8,5.54-51.39,3.64-74.95-5.91c0.02-30.03,0-60.06,0.01-90.09c-0.23-13.71-1.34-27.93-7.59-40.39
			c-3.72-7.54-9.88-14.02-17.7-17.31c-11.86-4.97-26.03-4.25-37.19,2.21c-9.6,5.32-16.24,14.43-21.43,23.87
			c-0.22-8.79-0.02-17.58-0.1-26.36c-4.33,0-8.65-0.03-12.97-0.01c-0.86-33.64,7.99-67.6,25.85-96.18
			C1112.17,122,1133.25,101.96,1158.54,89.93z M1198.83,147.15c-7.2,5.78-10.2,16.24-6.74,24.87c1.97,5.55,6.81,9.18,11.44,12.44
			c-13.58,0.05-27.18-0.31-40.74,0.3c0.05,5.16-0.4,10.32-0.36,15.48c34.35,0.04,68.69-0.13,103.04-0.21
			c0.02-5.24,0-10.47,0.02-15.7c-3.72-0.16-7.42-0.11-11.12-0.08c2.82-2.71,6.39-4.64,8.58-7.99c5.86-7.96,4.74-19.84-2.02-26.92
			c-7.22-7.72-18.13-10.64-28.38-11.17C1220.84,137.59,1208.14,139.47,1198.83,147.15z M1201.05,219.41
			c-11.08,8.83-12.7,26.73-3.85,37.67c6.12,7.59,15.87,11.31,25.35,12.34c10.58,1.23,21.83-0.06,31.22-5.35
			c7.1-3.96,12.48-11.1,13.66-19.22c1.13-8.28-0.7-17.29-6.25-23.71c-4.98-5.86-12.47-9.27-20.06-9.91
			c-0.1,4.92-0.05,9.84-0.05,14.76c3.33,0.94,6.76,2.7,8,6.18c2,5.29,2.18,12.03-1.7,16.55c-2.8,3.29-7.07,4.75-11.18,5.52
			c-0.2-14.43-0.25-28.86-0.14-43.29C1223.99,210.18,1210.79,211.59,1201.05,219.41z M1193.04,275.15
			c0.02,5.16-0.13,10.33,0.13,15.48c1.12,1.08,2.88,0.87,4.32,1.29c13.77,2.41,27.57,4.74,41.31,7.34
			c-2.26,1.34-4.91,1.63-7.41,2.21c-12.73,2.75-25.43,5.55-38.15,8.31c-0.13,4.95-0.33,9.91,0.05,14.85l0.54,0.65
			c11.88,2.67,23.83,5.05,35.73,7.62c3.35,0.78,6.85,1.13,10.04,2.54c-15.42,2.84-30.82,5.83-46.27,8.47
			c-0.21,5.39-0.16,10.79-0.03,16.18c24.35-5.48,48.62-11.35,72.99-16.73c0.12-5.18,0.02-10.35,0.06-15.52
			c-16.6-3.76-33.49-6.29-49.96-10.52c16.61-3.57,33.32-6.76,49.88-10.55c-0.11-5.14-0.08-10.28-0.21-15.41
			C1241.69,286.11,1217.45,280.24,1193.04,275.15z"/>
	</g>
	<path class="st0" d="M1219.89,155.45c6.81-1.88,14.35-1.73,20.85,1.19c4.75,2.11,8.8,6.72,8.76,12.14
		c0.51,7.12-5.32,13.61-12.09,15.03c-4.93,0.83-9.97,0.53-14.94,0.44c-8.14-0.38-15.56-8.02-14.6-16.33
		C1208.54,161.63,1214.07,157.02,1219.89,155.45z"/>
	<path class="st0" d="M1212.84,230.17c2.81-2.55,6.62-3.42,10.22-4.23c-0.01,9.32,0.05,18.63,0.09,27.95
		c-4.74-0.3-9.38-2.69-12.18-6.55C1207.34,242.22,1207.96,234.3,1212.84,230.17z"/>
	<path class="st0" d="M1096.8,279.1c7.2-5.87,17.72-6.33,25.98-2.53c5.12,2.42,8.49,7.4,10.2,12.66c3.3,9.85,2.34,20.37,2.5,30.58
		c0,17.33,0,34.66,0,51.98c-22.53-16.98-39.93-40.29-50.8-66.26C1085.37,295.73,1088.95,285.45,1096.8,279.1z"/>
</g>
<g>
	<g>
		<path d="M1198.83,147.15c9.31-7.68,22.01-9.56,33.72-8.98c10.25,0.53,21.16,3.45,28.38,11.17c6.76,7.08,7.88,18.96,2.02,26.92
			c-2.19,3.35-5.76,5.28-8.58,7.99c3.7-0.03,7.4-0.08,11.12,0.08c-0.02,5.23,0,10.46-0.02,15.7c-34.35,0.08-68.69,0.25-103.04,0.21
			c-0.04-5.16,0.41-10.32,0.36-15.48c13.56-0.61,27.16-0.25,40.74-0.3c-4.63-3.26-9.47-6.89-11.44-12.44
			C1188.63,163.39,1191.63,152.93,1198.83,147.15z M1219.89,155.45c-5.82,1.57-11.35,6.18-12.02,12.47
			c-0.96,8.31,6.46,15.95,14.6,16.33c4.97,0.09,10.01,0.39,14.94-0.44c6.77-1.42,12.6-7.91,12.09-15.03
			c0.04-5.42-4.01-10.03-8.76-12.14C1234.24,153.72,1226.7,153.57,1219.89,155.45z"/>
	</g>
	<path d="M138.93,167.23c13.94-2.77,28.28-3,42.48-2.45c4.61,0.85,9.16,2.12,13.89,2.16c5.91,2.41,12.37,3.09,18.21,5.7
		c7.52,1.62,13.47,6.71,20.4,9.71c1.71,1.37,3.62,2.41,5.49,3.54c5.22,5.07,11.6,9.04,16.13,14.86c3.09,4,6.16,8.04,8.44,12.58
		c3.42,4.47,5.66,9.65,6.91,15.12c2.26,2.43,1.32,5.84,2.26,8.76c2.23,12.26,2.31,25.01-1.1,37.05c-1.78,2.86-3.18,5.99-4.12,9.22
		c-2.26,0.86-2.18,3.52-3.69,5.05c-4.57,4.47-8.42,9.86-14.29,12.77c-2.77,2.11-6.44,2.63-9,5.05c-6.45,2-13.26,2.98-20.02,2.82
		c-0.49,3.37-3.05,5.89-3.83,9.2c-2.12,2.89-4.32,5.71-6.41,8.61c-2.88,3.51-6.76,5.94-10.14,8.91c-1.6,1.57-3.96,1.91-5.69,3.27
		c-2.52,2.28-6.21,2.22-8.92,4.2c-8.95,2.23-18.28,2.63-27.48,2.55c-3.64,0.12-7.12-1.2-10.76-1.16c-1.14-2.35-1.87-4.99-0.91-7.55
		c1.75-5.52-1.02-11.85,2.11-16.96c0.37-2.01,0.38-4.06,0.84-6.05c1.4-6.12-0.11-12.53,1.45-18.61c0.64-3.47-0.47-7.26,1.63-10.35
		c0.57-5.09,1.57-10.13,1.82-15.25c2.99-8.18,2.06-17.19,4.59-25.45c1.21-1.97,0.01-4.21,0.31-6.32c1.13-1.14,2.17-2.78,4.01-2.58
		c6.66-0.42,13.07,1.98,19.68,2.31c2.92,2.09,6.48,2.92,9.73,4.37c1.48,1.28,3.22,2.18,4.97,3.03c4.05,2.9,7.56,6.42,11.23,9.77
		c2.8,2.31,3.9,6.06,6.86,8.23c1.19,2.73,2.31,5.52,3.99,8.01c1.64,4.61,2.2,9.54,3.03,14.35c3.51,0.05,7.4,0.39,10.3-2.01
		c1.88-1.6,4.62-1.82,6.21-3.79c2.3-2.04,4.34-4.35,6.52-6.51c1.54-2.55,2.52-5.38,4.01-7.95c1.3-4.12,1.25-8.47,2.31-12.63
		c-1.5-5.19-0.48-10.89-3.13-15.79c-3.07-11.63-10.95-21.31-19.72-29.24c-4.9-3.57-9.82-7.24-15.5-9.51
		c-3.51-2.71-8.28-2.61-11.85-5.11c-4.25-1.97-9.15-1.74-13.46-3.54c-9.85-2.37-20.09-1.87-30.15-1.63
		c-5.37,1.4-11.11,0.42-16.32,2.61c-2.7,1.31-5.81,1.18-8.5,2.51c-3.42,2.86-8.63,1.87-11.81,5.2c-6.19,1.87-10.74,6.65-16.31,9.69
		c-4.84,3.78-9.54,7.75-13.92,12.06c-2.67,2.41-4.23,5.71-6.51,8.45c-5.34,5.74-8.19,13.17-12.2,19.81
		c-0.84,2.66-1.23,5.61-3.31,7.66c-1.55,3.26-1.8,7.03-2.38,10.57c-2.85,5.21-2.63,11.42-2.91,17.21
		c-2.22,10.12-0.24,20.49,1.8,30.47c1.79,3.85,2.08,8.19,3.81,12.06c2.45,4.72,3.79,9.95,6.38,14.6c3.34,4.16,5.25,9.21,8.83,13.21
		c4.13,6.11,9.83,10.76,14.71,16.22c9.02,6.78,18.48,12.93,29.08,16.95c4.33,2.76,9.8,2.26,14.24,4.69
		c5.18,2.46,11.1,0.97,16.46,2.63c4.91,0.52,9.88,0.07,14.82,0.23c3.39,0.24,6.55-1.32,9.93-1.28c4.44-0.1,8.26-2.69,12.61-3.23
		c7.52-2.62,15.14-5.53,21.57-10.31c2.03-0.96,4.57-1.14,5.9-3.16c7.78-4.57,14.06-11.28,20.48-17.52
		c6.71-8.19,12.73-17.09,17.14-26.76c1.25-4.43,3.97-8.26,5.57-12.57c4.17-1.64,9.35-3.7,13.51-0.96c1.99,1.03,3.18,3.02,4.97,4.33
		c2.54,6.75-0.8,13.67-3.17,19.98c-3.48,7.22-7.24,14.4-12.34,20.64c-2.95,4.02-5.44,8.51-9.34,11.7
		c-6.17,8.29-15.05,13.63-22.73,20.32c-6.03,3.24-11.79,7-18.06,9.91c-3.14,2.39-7.18,2.72-10.69,4.3
		c-3.95,2.23-8.85,1.77-12.61,4.48c-4.57,0.16-8.96,1.55-13.55,1.6c-9.48,3.02-19.5,1.03-29.23,0.82
		c-6.47-1.1-13.07-1.18-19.46-2.72c-3.71-2.75-8.76-1.97-12.61-4.5c-5.34-1.75-10.13-4.67-15.41-6.58
		c-2.24-2.42-5.89-2.49-8.14-4.89c-4.87-3.04-9-7.07-13.87-10.08c-3-3.67-6.82-6.53-10.19-9.84
		c-10.02-10.86-18.09-23.49-24.15-36.92c-1.73-6.17-5.42-11.88-5.42-18.46c-0.44,0.18-1.32,0.53-1.76,0.71
		c-0.25-8.78-3.02-17.38-2.25-26.26c-0.62,1.52-0.37,3.47-1.65,4.65c-0.23-5.14-0.07-10.29-0.09-15.44l1.13,0.04
		c0.06,1.73,0.1,3.46,0.34,5.18c0.35-7.13-0.31-14.41,1.16-21.47c0.46-3.17,1.29-6.27,1.53-9.47c2.2-3.52,1.98-7.84,3.29-11.68
		c2.3-3.68,2.98-8.14,5.29-11.83c1.22-1.94,1.77-4.19,2.65-6.29c2.6-3.81,5.41-7.55,7.06-11.89c3.45-2.65,4.92-7.14,8.62-9.51
		c1.8-3.11,4.05-5.9,6.43-8.6c1.78-1.17,3.82-2.08,4.9-4.04c2.8-2.9,6.73-4.58,9.14-7.91c1.55-0.71,2.96-1.64,3.99-3.03
		c2.22-1,4.52-1.92,6.38-3.54c3.85-3.11,8.85-4.36,12.65-7.47c3.01-0.98,6.09-1.79,9.03-2.98
		C127.98,169.53,133.86,169.51,138.93,167.23z"/>
	<path d="M864.86,172.35c6.78-2.05,14.07,1.48,17.98,7.08c7.34,10.33,7.17,25.38-0.04,35.73c-3.43,4.85-9.27,8.32-15.34,7.59
		c-6.83-0.62-12.4-5.81-15.11-11.87c-3.69-8.26-3.93-18.09-0.39-26.44C854.33,178.88,858.88,173.93,864.86,172.35z"/>
	<g>
		<path d="M1201.05,219.41c9.74-7.82,22.94-9.23,35-8.46c-0.11,14.43-0.06,28.86,0.14,43.29c4.11-0.77,8.38-2.23,11.18-5.52
			c3.88-4.52,3.7-11.26,1.7-16.55c-1.24-3.48-4.67-5.24-8-6.18c0-4.92-0.05-9.84,0.05-14.76c7.59,0.64,15.08,4.05,20.06,9.91
			c5.55,6.42,7.38,15.43,6.25,23.71c-1.18,8.12-6.56,15.26-13.66,19.22c-9.39,5.29-20.64,6.58-31.22,5.35
			c-9.48-1.03-19.23-4.75-25.35-12.34C1188.35,246.14,1189.97,228.24,1201.05,219.41z M1212.84,230.17
			c-4.88,4.13-5.5,12.05-1.87,17.17c2.8,3.86,7.44,6.25,12.18,6.55c-0.04-9.32-0.1-18.63-0.09-27.95
			C1219.46,226.75,1215.65,227.62,1212.84,230.17z"/>
	</g>
	<g>
		<path d="M352.81,239.04c15.21-1.52,31,2.89,42.95,12.49c13.79,10.89,22.11,27.47,25.32,44.52c2.91,15.79,2.6,32.28-1.46,47.85
			c-4.12,15.86-13.12,30.85-26.72,40.32c-14.85,10.53-34.62,13.34-51.95,8c-13.49-4.07-25.16-13.28-32.83-25.03
			c-10-15.07-13.81-33.5-13.66-51.38c0.14-18.64,4.73-37.84,16.14-52.89C320.53,249.53,336.16,240.5,352.81,239.04z M352.79,274.99
			c-8.19,1.94-14.7,8.25-18.58,15.53c-6.15,11.5-7.41,25.19-5.12,37.91c1.92,9.92,6.45,19.92,14.79,26.03
			c7.25,5.47,17.52,6.44,25.67,2.47c7.51-3.59,12.8-10.65,15.84-18.23c4.47-11.19,5.14-23.75,2.58-35.47
			c-1.96-8.68-5.96-17.26-12.93-23.02C368.99,275.09,360.49,273.03,352.79,274.99z"/>
	</g>
	<path d="M498.83,243.19c10.41-5.35,23.06-5.78,33.99-1.77c8.25,3.02,14.88,9.56,18.85,17.31c5.92,11.37,7.46,24.41,7.8,37.05
		c0.02,32.01,0,64.02,0.01,96.03c-11,0-22,0-33,0c-0.01-28,0.03-56-0.02-84.01c-0.27-8.8-0.94-18.32-6.25-25.71
		c-4.21-5.88-11.81-8.03-18.74-7.81c-7.11,0.05-13.86,3.86-18.08,9.5c-5.84,7.67-7.84,17.56-7.9,27.03c-0.03,27-0.01,54-0.01,81
		c-11,0-22,0-33,0c0-50,0-100,0-150c11,0,22,0,33,0c0.05,8.76-0.1,17.54,0.07,26.3C480.91,257.96,488.33,248.37,498.83,243.19z"/>
	<g>
		<path d="M626.03,240.19c16.62-3.64,35.19-0.37,48.54,10.52c12.6,10.15,19.69,25.63,22.87,41.2c2.71,12.45,2.4,25.24,2.33,37.9
			c-29.62,0-59.24,0-88.86,0c1.53,9.45,5.49,19.3,13.73,24.82c7.1,4.87,16.25,5.15,24.46,3.59c5.99-1.19,12.13-3.93,15.58-9.19
			c1.87-2.7,2.46-5.99,2.82-9.18c10.51-0.08,21.02,0.01,31.54-0.05c-1.48,16.52-9.14,32.91-22.43,43.16
			c-12.4,9.66-28.81,13-44.24,11.54c-13.76-1.38-26.67-8.52-35.46-19.14c-11.85-14.09-16.94-32.67-18.01-50.76
			c-1.14-19.95,1.69-40.86,12.13-58.22C598.68,253.54,611.3,243.42,626.03,240.19z M623.57,279.94
			c-7.03,5.56-10.78,14.23-12.44,22.84c19.02,0.08,38.04-0.01,57.06,0.04c-1.35-9.97-5.62-20.77-15.06-25.6
			C643.83,272.55,631.76,273.34,623.57,279.94z"/>
	</g>
	<g>
		<path d="M961.81,239.04c14.73-1.45,30.01,2.6,41.8,11.61c13.55,10.17,22.13,25.84,25.79,42.18c3.41,15.37,3.46,31.5,0.23,46.91
			c-3.54,16.72-12.17,32.84-26.01,43.23c-13.21,10.1-30.78,13.94-47.07,10.86c-14.93-2.65-28.48-11.48-37.37-23.7
			c-10.71-14.42-15.25-32.57-15.69-50.31c-0.45-18.77,3.35-38.24,14.02-53.98C927.34,250.92,943.93,240.57,961.81,239.04z
			 M961.79,274.99c-8.45,2.01-15.07,8.62-18.92,16.18c-5.97,11.62-7.09,25.34-4.62,38.05c2.04,9.86,6.74,19.78,15.21,25.65
			c7.4,5.27,17.71,5.94,25.75,1.73c7.42-3.81,12.54-10.99,15.47-18.63c4.19-11.01,4.8-23.27,2.29-34.74
			c-1.96-8.68-5.96-17.26-12.93-23.02C977.99,275.09,969.48,273.03,961.79,274.99z"/>
	</g>
	<path d="M1106,244.31c11.16-6.46,25.33-7.18,37.19-2.21c7.82,3.29,13.98,9.77,17.7,17.31c6.25,12.46,7.36,26.68,7.59,40.39
		c-0.01,30.03,0.01,60.06-0.01,90.09c0,0.48,0,1.43,0.01,1.9c-11.01,0.05-22.01,0-33,0.02c0-6.67-0.01-13.34,0-20.02
		c0-17.32,0-34.65,0-51.98c-0.16-10.21,0.8-20.73-2.5-30.58c-1.71-5.26-5.08-10.24-10.2-12.66c-8.26-3.8-18.78-3.34-25.98,2.53
		c-7.85,6.35-11.43,16.63-12.12,26.43c-0.46,28.76-0.08,57.52-0.2,86.28c-11,0-22,0-33,0c0-50,0-100,0-150c6.67,0,13.34,0,20.02,0
		c4.32-0.02,8.64,0.01,12.97,0.01c0.08,8.78-0.12,17.57,0.1,26.36C1089.76,258.74,1096.4,249.63,1106,244.31z"/>
	<path d="M703.81,241.82c12.81,0.03,25.62-0.1,38.42,0.07c8.61,15.89,17.07,31.88,26.1,47.52c8.88-15.78,17.35-31.8,26.17-47.62
		c12.69,0.05,25.39,0,38.09,0.02c-11.81,19.88-23.73,39.7-35.58,59.55c-2.26,4.18-5.27,8-7.05,12.4
		c15.59,26.07,31.56,51.92,47.11,78.01c-12.52,0.07-25.05,0.04-37.57,0.03c-1.51,0.3-1.91-1.52-2.56-2.44
		c-9.51-17.37-18.94-34.79-28.62-52.07c-10.35,17.95-20.23,36.21-30.15,54.41c-12.99,0.25-25.98,0.05-38.96,0.11
		c15.46-25.9,31.26-51.61,46.81-77.46c0.88-1.07-0.51-2.23-0.86-3.21C731.36,288.04,717.41,265.03,703.81,241.82z"/>
	<ellipse cx="868.98" cy="316.81" rx="23.33" ry="106.07"/>
	<path d="M112.64,250.12c6.68,0.46,13.36,1.19,19.93,2.51c3.94,0.29,7.9,0.14,11.84,0.16c-1.37,5.8-1.72,11.88-2.06,17.86
		c-0.84,2.36-1.63,4.75-1.97,7.24c-7.5,0.53-15.07-0.14-22.36-1.52c-2.34-1.93-5.52-0.83-8.2-1.74c-2.72-1.2-4.56-3.63-6.97-5.29
		c-2.76-5.15-1.5-11.75,2.06-16.17C107.25,251.67,109.81,250.34,112.64,250.12z"/>
	<path d="M1193.04,275.15c24.41,5.09,48.65,10.96,73.02,16.21c0.13,5.13,0.1,10.27,0.21,15.41c-16.56,3.79-33.27,6.98-49.88,10.55
		c16.47,4.23,33.36,6.76,49.96,10.52c-0.04,5.17,0.06,10.34-0.06,15.52c-24.37,5.38-48.64,11.25-72.99,16.73
		c-0.13-5.39-0.18-10.79,0.03-16.18c15.45-2.64,30.85-5.63,46.27-8.47c-3.19-1.41-6.69-1.76-10.04-2.54
		c-11.9-2.57-23.85-4.95-35.73-7.62l-0.54-0.65c-0.38-4.94-0.18-9.9-0.05-14.85c12.72-2.76,25.42-5.56,38.15-8.31
		c2.5-0.58,5.15-0.87,7.41-2.21c-13.74-2.6-27.54-4.93-41.31-7.34c-1.44-0.42-3.2-0.21-4.32-1.29
		C1192.91,285.48,1193.06,280.31,1193.04,275.15z"/>
	<path d="M99.34,295.67c3.07-3.33,8.04-2.94,12.13-3.83c2.78,0.33,5.49,1.11,8.23,1.69c3.18,0.5,6.41,0.07,9.61,0.35
		c2.79,1.88,6.16,1.72,9.37,2.01c-0.73,1.95-1.74,3.89-1.68,6.03c-0.05,5.54-0.53,11.08-1.74,16.49c-1.4,1.59-3.7,5.09-5.86,2.56
		c-4.49-2.14-9.84-1.64-14.71-2.32c-3.26-0.98-6.68-0.7-10.03-0.9c-1.87-1.21-3.78-2.38-5.86-3.22c-0.64-1.34-1.33-2.66-2.16-3.89
		c-2.03-2.4-1.03-5.77-1.12-8.63C97.24,300.11,97.15,297.16,99.34,295.67z"/>
</g>
</svg>
